<svg xmlns="http://www.w3.org/2000/svg" data-v-fde0c5aa="" width="100" height="96" style=""><rect id="backgroundrect" width="100%" height="100%" x="0" y="0" fill="none" stroke="none" style="" class=""/><!----><defs data-v-fde0c5aa=""><!----></defs><defs data-v-fde0c5aa=""><!----></defs><defs data-v-fde0c5aa=""><linearGradient data-v-fde0c5aa="" gradientTransform="rotate(25)" id="837d60ed-38b7-42b7-881e-8a219426b693" x1="0%" y1="0%" x2="100%" y2="0%"><stop data-v-fde0c5aa="" offset="0%" stop-color="#9AE01B" stop-opacity="1"/><stop data-v-fde0c5aa="" offset="100%" stop-color="#5F8E0A" stop-opacity="1"/></linearGradient></defs><!----><g class="currentLayer" style=""><title>Layer 1</title><g data-v-fde0c5aa="" id="a6d1413c-e1c8-4075-96d7-2217cf25b9a5" fill="#000000" class=""><path d="" id="svg_2"/></g><g data-v-fde0c5aa="" id="327f047b-29b9-45fa-a9af-8cd5cc68f019" stroke="none" fill="url(#837d60ed-38b7-42b7-881e-8a219426b693)" class=""><path clip-rule="evenodd" d="M21.066034580230713,78.783 c0.2910000000000001,0.05100000000000002 0.5940000000000002,0.06600000000000003 0.8710000000000002,0.15800000000000006 c2.2720000000000002,0.7460000000000002 2.977,4.131 1.448,5.687 c-1.586,1.612 -4.13,2.25 -6.358,1.338 c-2.797,-1.1440000000000001 -4.439,-4.597 -3.7520000000000002,-7.761 c0.4880000000000001,-2.244 1.8370000000000002,-3.832 3.646,-5.108 c1.126,-0.795 2.354,-1.347 3.745,-1.466 c2.5620000000000003,-0.21900000000000006 4.665,0.8260000000000002 6.348,2.611 c3.769,4 5.467,8.769 4.7620000000000005,14.264 c-0.3540000000000001,2.7680000000000002 -1.6920000000000004,5.002 -4.197,6.407 c-1.2570000000000001,0.7050000000000002 -2.622,1.083 -4.054,1.196 c-2.283,0.18300000000000005 -4.5600000000000005,0.07 -6.7490000000000006,-0.6170000000000002 c-4.473,-1.407 -7.809,-4.283 -10.268,-8.226 c-2.205,-3.536 -3.417,-7.437 -4.151,-11.5 c-0.9410000000000002,-5.209 -0.978,-10.46 -0.561,-15.718 a73.537,73.537 0 0 1 1.786,-11.297 c1.227,-5.143 2.859,-10.134 5.529,-14.739 c2.911,-5.022 6.22,-9.736 10.523,-13.685 c2.8930000000000002,-2.653 6.101,-4.787 9.883000000000001,-5.974 c1.6760000000000004,-0.526 3.36,-0.811 5.123,-0.4830000000000001 c2.692,0.501 5.019,1.7690000000000001 7.1530000000000005,3.407 c4.8740000000000006,3.739 8.612,8.447 11.616,13.769 c0.08500000000000003,0.15200000000000005 0.17500000000000004,0.3010000000000001 0.262,0.452 l0.17400000000000004,-0.020000000000000007 l2.834,-12.457 c0.11000000000000003,0.14600000000000005 0.21900000000000006,0.279 0.3150000000000001,0.4200000000000001 c1.062,1.536 1.7530000000000001,3.245 2.276,5.02 c0.7310000000000002,2.479 1.4020000000000001,4.977 2.128,7.458 c0.21900000000000006,0.7470000000000002 0.535,1.465 0.8130000000000002,2.215 c0.549,-0.3760000000000001 0.798,-0.8180000000000002 0.9680000000000002,-1.7000000000000002 c0.3000000000000001,-1.553 0.21000000000000005,-3.114 0.06200000000000002,-4.6720000000000015 c-0.3390000000000002,-3.557 -1.062,-7.044 -1.953,-10.498 c-0.9380000000000002,-3.637 -2.025,-7.226 -3.598,-10.649000000000001 c-0.23,-0.501 -0.4880000000000001,-0.992 -0.771,-1.465 c-0.272,-0.455 -0.5920000000000002,-0.8800000000000002 -0.917,-1.357 c7.676,3.589 14.391,8.46 20.393,14.339 C81.74003458023071,23.366 86.29003458023071,29.22 89.99403458023072,35.724 c2.5220000000000002,4.429 4.565,9.067 6.05,13.946 a57.19,57.19 0 0 1 2.253,11.443 c0.08500000000000003,0.922 0.10800000000000003,1.85 0.16100000000000006,2.806 c-0.23600000000000004,0.010000000000000004 -0.406,0.028000000000000008 -0.5750000000000002,0.023000000000000013 c-2.257,-0.06300000000000003 -4.517,-0.07200000000000002 -6.769,-0.20900000000000005 c-3.715,-0.22700000000000006 -7.357,-0.8820000000000002 -10.863,-2.171 c-5.783,-2.126 -10.068,-5.832 -12.377,-11.666 c-1.331,-3.365 -1.146,-6.635 0.5980000000000002,-9.755 c1.729,-3.092 4.287,-4.997 8.014,-4.805 c1.7600000000000002,0.09000000000000004 3.319,0.6870000000000004 4.494,2.101 c1.25,1.505 2.027,3.217 2.382,5.133 c0.2960000000000001,1.6 0.2820000000000001,3.186 -0.403,4.6880000000000015 c-0.7670000000000002,1.6760000000000004 -2.062,2.741 -3.9450000000000003,2.8120000000000003 c-2.513,0.09400000000000006 -4.948,-2.329 -5.033,-4.891 c-0.047000000000000014,-1.421 0.5970000000000002,-2.416 1.907,-2.954 c1.151,-0.4730000000000001 2.302,-0.5840000000000002 3.478,0.06200000000000002 c-0.4470000000000001,-1.246 -1.8090000000000002,-2.044 -3.152,-1.799 c-0.6380000000000002,0.11700000000000003 -1.255,0.3930000000000001 -1.856,0.6530000000000002 c-2.762,1.194 -3.853,3.649 -2.833,6.485 c0.9380000000000002,2.607 2.723,4.493 5.219,5.659 c2.544,1.188 5.23,0.783 7.104,-1.102 c2.367,-2.3810000000000002 3.569,-5.309 3.539,-8.659 c-0.03600000000000001,-3.8810000000000002 -1.7240000000000002,-6.999 -4.784,-9.346 c-4.035,-3.097 -9.411,-3.137 -13.371,-0.128 c-2.475,1.8800000000000003 -3.622,4.507 -4.068,7.493 c-0.4260000000000001,2.847 -0.15800000000000006,5.6690000000000005 0.4200000000000001,8.467 c0.24700000000000005,1.199 0.5720000000000002,2.382 0.8670000000000002,3.597 c-0.07300000000000002,-0.04300000000000002 -0.14,-0.07500000000000002 -0.19900000000000007,-0.11600000000000003 a24.206,24.206 0 0 0 -8.688,-3.716 c-3.021,-0.6470000000000002 -6.043,-0.7350000000000002 -9.041,0.11500000000000003 c-0.8960000000000002,0.253 -1.7560000000000002,0.6310000000000002 -2.632,0.9510000000000002 c-0.009000000000000006,0.06200000000000002 -0.018000000000000006,0.12200000000000003 -0.02500000000000001,0.18300000000000005 c0.11400000000000003,0.08100000000000003 0.23700000000000004,0.15300000000000005 0.3430000000000002,0.24600000000000005 c1.715,1.492 3.387,3.036 5.146,4.473 c3.399,2.7720000000000002 7.059,5.152 11.028,7.041 c0.265,0.125 0.4440000000000001,0.11300000000000003 0.6800000000000004,-0.06200000000000002 c0.912,-0.6780000000000004 1.835,-1.34 2.765,-1.995 c0.8610000000000002,-0.6070000000000002 1.82,-0.8290000000000002 2.869,-0.6940000000000004 c1.105,0.14300000000000004 2.024,0.6870000000000004 2.8890000000000002,1.334 c1.2570000000000001,0.9430000000000002 2.496,1.909 3.742,2.866 h-0.3200000000000001 c-4.439,0.021000000000000008 -8.878,0.019000000000000006 -13.316,0.07600000000000003 a8.49,8.49 0 0 1 -3.049,-0.516 c-0.904,-0.3260000000000001 -1.816,-0.6330000000000002 -2.721,-0.9600000000000002 c-6.664,-2.4130000000000003 -12.763,-5.82 -18.226,-10.35 c-0.6030000000000002,-0.5 -0.5970000000000002,-0.4950000000000001 -0.3310000000000001,-1.221 c1.6870000000000005,-4.619 3.039,-9.319 3.497,-14.242 c0.2840000000000001,-3.043 0.17200000000000001,-6.054 -0.6370000000000002,-9.015 c-0.17600000000000005,-0.6440000000000002 -0.4250000000000001,-1.267 -0.6540000000000002,-1.943 c-8.386,6.288 -15.084,13.71 -17.822,24.069 c3.917,-5.347 8.187,-10.353 13.688,-14.318 c-0.7380000000000002,9.214 -2.706,17.872 -9.126,25.027 c3.455,-0.203 6.767,-1.048 10.15,-0.6620000000000003 c1.127,3.713 3.004,7.112 3.887,10.915 c-0.526,-0.257 -1.081,-0.4920000000000001 -1.477,-0.8880000000000002 c-1.069,-1.071 -2.068,-2.212 -3.101,-3.319 c-0.24000000000000005,-0.257 -0.502,-0.4930000000000001 -0.7540000000000002,-0.7390000000000002 c-0.03600000000000001,2.396 0.8260000000000002,4.602 1.003,6.945 c-0.6450000000000002,-0.526 -1.266,-1.06 -1.818,-1.6560000000000001 c-1.741,-1.8780000000000001 -3.06,-4.05 -4.258,-6.297 c-0.203,-0.3810000000000001 -0.4260000000000001,-0.535 -0.8690000000000002,-0.533 c-3.681,0.019000000000000006 -7.361,0.010000000000000004 -11.042,0.009000000000000006 h-0.541 c-1.125,-7.813 -1.8850000000000002,-15.611 -1.998,-23.471 c-1.104,1.79 -1.94,3.676 -2.664,5.614 c-1.6550000000000002,4.434 -2.7800000000000002,9.004 -3.478,13.681000000000001 c-0.6060000000000002,4.069 -0.8770000000000002,8.154 -0.6050000000000002,12.271 c0.17900000000000005,2.705 0.6210000000000002,5.353 1.459,7.933 c1.243,3.827 3.576,6.777 7.063,8.797 c1.3840000000000001,0.802 2.866,1.206 4.448,0.771 a9.628,9.628 0 0 0 3.516,-1.8 c1.835,-1.48 2.6910000000000007,-3.378 2.433,-5.74 c-0.22700000000000006,-2.069 -1.167,-3.8120000000000003 -2.534,-5.34 c-1.028,-1.1480000000000001 -2.228,-2.058 -3.747,-2.451 c-1.463,-0.3790000000000001 -2.725,-0.024000000000000007 -3.704,1.153 c-0.8630000000000002,1.04 -1.248,2.2800000000000002 -1.441,3.596 c-0.14600000000000005,0.988 -0.05000000000000002,1.933 0.556,2.753 c1.032,1.3980000000000001 3.232,1.6720000000000004 4.9,0.771 c1.45,-0.783 1.2530000000000001,-3.113 -0.040000000000000015,-3.595 c-0.272,-0.10200000000000002 -0.4750000000000001,-0.3920000000000001 -0.7090000000000002,-0.5950000000000002 l0.12000000000000002,-0.18000000000000005 zM76.34503458023072,45.74 c-0.004000000000000002,0.996 0.803,1.823 1.7810000000000001,1.8250000000000002 c0.9530000000000002,0.002000000000000001 1.819,-0.8610000000000002 1.818,-1.812 c0,-0.974 -0.8690000000000002,-1.8330000000000002 -1.854,-1.83 c-0.932,0.004000000000000002 -1.741,0.8450000000000002 -1.745,1.8170000000000002 zM95.89803458023071,34.11 c-1.8770000000000002,-1.5710000000000002 -4.112,-1.804 -6.533,-1.848 c2.785,3.466 4.492,7.392 5.959,11.449 c1.141,-1.657 2.373,-5.197 1.9380000000000002,-6.828 c-0.986,0.4300000000000001 -1.758,0.22400000000000006 -2.186,-0.5830000000000002 c-0.4360000000000001,-0.8260000000000002 -0.16800000000000007,-1.565 0.8220000000000002,-2.19 z" id="svg_3"/><path clip-rule="evenodd" d="M78.09203458023072,43.924 c-0.934,0.003000000000000002 -1.742,0.8440000000000002 -1.746,1.816 c-0.004000000000000002,0.996 0.803,1.823 1.7810000000000001,1.8250000000000002 c0.9530000000000002,0.002000000000000001 1.819,-0.8610000000000002 1.818,-1.812 c0,-0.974 -0.8690000000000002,-1.8330000000000002 -1.8530000000000002,-1.8290000000000002 z" id="svg_4"/></g></g></svg>