<svg data-v-423bf9ae="" xmlns="http://www.w3.org/2000/svg" viewBox="0 0 657 95" class="iconLeftSlogan"><!----><!----><defs data-v-423bf9ae=""><linearGradient data-v-423bf9ae="" gradientTransform="rotate(25)" id="6a15645d-1437-4d12-8716-a4ccb3188159" x1="0%" y1="0%" x2="100%" y2="0%"><stop data-v-423bf9ae="" offset="0%" style="stop-color: rgb(255, 255, 255); stop-opacity: 1;"></stop><stop data-v-423bf9ae="" offset="100%" style="stop-color: rgb(235, 226, 226); stop-opacity: 1;"></stop></linearGradient></defs><g data-v-423bf9ae="" id="480dd4c9-d967-4e06-84c4-520638534e4b" fill="url(#6a15645d-1437-4d12-8716-a4ccb3188159)" transform="matrix(4.092769483254234,0,0,4.092769483254234,117.77511656922843,1.841747085706885)"><path d="M1.81 0.56L1.81 0.56Q3.50 0.70 4.94 1.40L4.94 1.40L4.94 1.40Q6.38 2.10 7.22 3.16L7.22 3.16L7.22 3.16Q8.06 4.21 8.06 5.38L8.06 5.38L8.06 5.38Q8.06 6.40 7.17 7.63L7.17 7.63L7.17 7.63Q6.27 8.86 4.99 9.72L4.99 9.72L4.99 9.72Q3.71 10.57 2.66 10.57L2.66 10.57L2.66 10.57Q2.31 10.57 1.77 10.22L1.77 10.22L1.77 10.22Q1.23 9.87 0.83 9.41L0.83 9.41L0.83 9.41Q0.42 8.96 0.42 8.69L0.42 8.69L0.42 8.69Q0.42 8.46 0.70 7.36L0.70 7.36L0.70 7.36Q0.98 6.23 1.16 5.32L1.16 5.32L1.16 5.32Q1.23 4.97 1.47 4.09L1.47 4.09L1.47 4.09Q1.50 3.96 1.61 3.58L1.61 3.58L1.61 3.58Q1.72 3.19 1.78 2.87L1.78 2.87L1.20 2.84L1.20 2.84Q0.98 2.39 0.98 1.95L0.98 1.95L0.98 1.95Q0.98 1.53 1.19 1.17L1.19 1.17L1.19 1.17Q1.40 0.81 1.81 0.56L1.81 0.56ZM2.66 8.74L2.66 8.74Q4.06 8.01 4.99 6.96L4.99 6.96L4.99 6.96Q5.92 5.91 5.92 4.98L5.92 4.98L5.92 4.98Q5.92 4.44 5.27 3.93L5.27 3.93L5.27 3.93Q4.62 3.43 3.78 3.26L3.78 3.26L3.78 3.26Q3.61 4.12 3.28 5.71L3.28 5.71L3.28 5.71Q2.86 7.70 2.66 8.74L2.66 8.74ZM11.62 10.50L11.62 10.50Q10.95 10.50 10.22 10.06L10.22 10.06L10.22 10.06Q9.49 9.62 9.02 8.97L9.02 8.97L9.02 8.97Q8.54 8.33 8.54 7.76L8.54 7.76L8.54 7.76Q8.54 6.73 9.02 5.52L9.02 5.52L9.02 5.52Q9.51 4.30 10.36 3.45L10.36 3.45L10.36 3.45Q11.21 2.60 12.29 2.60L12.29 2.60L12.29 2.60Q13.06 2.60 13.69 2.94L13.69 2.94L13.69 2.94Q14.31 3.28 14.66 3.78L14.66 3.78L14.66 3.78Q15.01 4.28 15.01 4.76L15.01 4.76L15.01 4.76Q15.01 5.35 14.48 5.92L14.48 5.92L14.48 5.92Q13.94 6.48 12.99 6.91L12.99 6.91L12.99 6.91Q12.04 7.34 10.82 7.52L10.82 7.52L10.82 7.52Q10.81 7.69 10.81 8.02L10.81 8.02L10.81 8.02Q10.81 8.44 10.84 8.65L10.84 8.65L10.84 8.65Q11.54 8.58 12.22 8.27L12.22 8.27L12.22 8.27Q12.91 7.97 13.72 7.41L13.72 7.41L13.72 7.41Q14.27 7.57 14.55 7.94L14.55 7.94L14.55 7.94Q14.83 8.30 14.83 8.81L14.83 8.81L14.83 8.81Q14.83 9.23 14.32 9.63L14.32 9.63L14.32 9.63Q13.80 10.02 13.05 10.26L13.05 10.26L13.05 10.26Q12.29 10.50 11.62 10.50L11.62 10.50ZM11.03 6.47L11.03 6.47Q11.89 6.16 12.46 5.68L12.46 5.68L12.46 5.68Q13.03 5.21 13.03 4.87L13.03 4.87L13.03 4.87Q13.03 4.48 12.49 4.34L12.49 4.34L12.49 4.34Q11.96 4.73 11.59 5.28L11.59 5.28L11.59 5.28Q11.21 5.82 11.03 6.47L11.03 6.47ZM20.03 4.27L20.03 4.27Q19.40 4.75 19.02 5.21L19.02 5.21L19.02 5.21Q18.63 5.67 18.63 5.99L18.63 5.99L18.63 5.99Q18.63 6.15 18.90 6.31L18.90 6.31L18.90 6.31Q19.17 6.47 19.78 6.75L19.78 6.75L19.78 6.75Q20.76 7.20 21.32 7.58L21.32 7.58L21.32 7.58Q21.88 7.97 21.88 8.47L21.88 8.47L21.88 8.47Q21.88 8.97 21.32 9.44L21.32 9.44L21.32 9.44Q20.75 9.91 19.91 10.21L19.91 10.21L19.91 10.21Q19.07 10.50 18.34 10.50L18.34 10.50L18.34 10.50Q17.79 10.50 17.19 10.27L17.19 10.27L17.19 10.27Q16.59 10.04 16.18 9.68L16.18 9.68L16.18 9.68Q15.78 9.32 15.78 9.00L15.78 9.00L15.78 9.00Q15.78 8.43 16.15 8.09L16.15 8.09L16.15 8.09Q16.52 7.74 17.12 7.74L17.12 7.74L17.12 7.74Q17.40 7.74 17.70 7.83L17.70 7.83L17.70 7.83Q17.93 8.58 18.10 8.90L18.10 8.90L18.10 8.90Q18.96 8.68 19.63 8.15L19.63 8.15L19.63 8.15Q18.45 7.64 17.48 7.01L17.48 7.01L17.48 7.01Q16.51 6.38 16.51 5.84L16.51 5.84L16.51 5.84Q16.51 5.28 17.02 4.50L17.02 4.50L17.02 4.50Q17.54 3.72 18.35 3.16L18.35 3.16L18.35 3.16Q19.15 2.59 19.99 2.59L19.99 2.59L19.99 2.59Q20.57 2.59 21.09 2.93L21.09 2.93L21.09 2.93Q21.62 3.26 21.94 3.77L21.94 3.77L21.94 3.77Q22.26 4.27 22.26 4.75L22.26 4.75L22.26 4.75Q22.26 5.21 21.90 5.50L21.90 5.50L21.90 5.50Q21.55 5.78 21 5.78L21 5.78L21 5.78Q20.65 5.78 20.29 5.64L20.29 5.64L20.29 5.64Q20.26 5.08 20.03 4.27L20.03 4.27ZM25.41 5.70L25.41 5.70Q26.43 4.34 27.03 3.66L27.03 3.66L27.03 3.66Q27.64 2.98 28.10 2.98L28.10 2.98L28.10 2.98Q28.42 2.98 28.76 3.29L28.76 3.29L28.76 3.29Q29.11 3.60 29.33 4.02L29.33 4.02L29.33 4.02Q29.55 4.45 29.55 4.75L29.55 4.75L29.55 4.75Q29.55 5.54 28.93 6.33L28.93 6.33L28.93 6.33Q28.31 7.13 27.36 7.76L27.36 7.76L27.36 7.76Q27.64 8.02 27.83 8.16L27.83 8.16L27.83 8.16Q28.03 8.30 28.25 8.39L28.25 8.39L28.25 8.39Q28.69 8.25 29.34 7.88L29.34 7.88L29.34 7.88Q29.76 8.13 29.99 8.47L29.99 8.47L29.99 8.47Q30.21 8.81 30.21 9.14L30.21 9.14L30.21 9.14Q30.21 9.73 29.68 10.12L29.68 10.12L29.68 10.12Q29.15 10.50 28.35 10.50L28.35 10.50L28.35 10.50Q27.69 10.50 27.14 10.12L27.14 10.12L27.14 10.12Q26.59 9.73 26.23 9.08L26.23 9.08L26.23 9.08Q25.87 8.43 25.75 7.67L25.75 7.67L26.01 7.24L26.01 7.24Q26.78 6.93 27.18 6.52L27.18 6.52L27.18 6.52Q27.58 6.12 27.58 5.80L27.58 5.80L27.58 5.80Q27.58 5.66 27.50 5.58L27.50 5.58L27.50 5.58Q27.43 5.50 27.30 5.50L27.30 5.50L27.30 5.50Q26.99 5.50 26.54 5.92L26.54 5.92L26.54 5.92Q26.10 6.33 25.30 7.20L25.30 7.20L25.30 7.20Q25.28 7.21 24.98 7.56L24.98 7.56L24.98 7.56Q24.93 8.65 24.77 9.58L24.77 9.58L24.77 9.58Q24.60 10.50 24.30 10.50L24.30 10.50L24.30 10.50Q23.95 10.50 23.49 10.26L23.49 10.26L23.49 10.26Q23.03 10.02 22.70 9.70L22.70 9.70L22.70 9.70Q22.37 9.37 22.37 9.13L22.37 9.13L22.37 9.13Q22.37 8.96 22.48 8.55L22.48 8.55L22.48 8.55Q22.60 8.13 22.75 7.63L22.75 7.63L22.75 7.63Q23.30 5.84 23.60 4.42L23.60 4.42L23.60 4.42Q23.77 3.64 23.90 2.80L23.90 2.80L23.90 2.80Q24.09 1.68 24.23 1.08L24.23 1.08L24.23 1.08Q24.37 0.48 24.59 0.06L24.59 0.06L24.59 0.06Q24.81-0.35 25.13-0.35L25.13-0.35L25.13-0.35Q25.37-0.35 25.84-0.06L25.84-0.06L25.84-0.06Q26.31 0.22 26.67 0.60L26.67 0.60L26.67 0.60Q27.03 0.97 27.03 1.20L27.03 1.20L27.03 1.20Q27.03 1.41 26.89 1.67L26.89 1.67L26.89 1.67Q26.74 1.93 26.40 2.41L26.40 2.41L26.40 2.41Q26.33 2.51 26.15 2.80L26.15 2.80L26.15 2.80Q25.96 3.09 25.87 3.29L25.87 3.29L25.87 3.29Q25.70 3.70 25.50 4.33L25.50 4.33L25.50 4.33Q25.30 4.96 25.16 5.56L25.16 5.56L25.41 5.70ZM36.06 4.91L33.98 5.00L33.98 5.00Q33.52 7.11 33.38 8.44L33.38 8.44L33.38 8.44Q34.27 8.01 34.82 7.55L34.82 7.55L34.82 7.55Q35.43 7.76 35.73 8.13L35.73 8.13L35.73 8.13Q36.04 8.50 36.04 8.97L36.04 8.97L36.04 8.97Q36.04 9.31 35.56 9.67L35.56 9.67L35.56 9.67Q35.08 10.02 34.43 10.26L34.43 10.26L34.43 10.26Q33.77 10.50 33.31 10.50L33.31 10.50L33.31 10.50Q32.90 10.50 32.40 10.26L32.40 10.26L32.40 10.26Q31.91 10.01 31.56 9.68L31.56 9.68L31.56 9.68Q31.21 9.35 31.21 9.11L31.21 9.11L31.21 9.11Q31.21 8.92 31.35 8.27L31.35 8.27L31.35 8.27Q31.50 7.62 31.62 7.15L31.62 7.15L31.62 7.15Q31.74 6.68 31.79 6.45L31.79 6.45L32.13 5.11L31.28 5.17L31.28 5.17Q31.04 5.05 30.91 4.82L30.91 4.82L30.91 4.82Q30.79 4.58 30.79 4.27L30.79 4.27L30.79 4.27Q30.79 3.71 31.19 3.32L31.19 3.32L31.19 3.32Q31.70 3.35 32.42 3.37L32.42 3.37L32.42 3.37Q32.42 2.48 32.62 1.39L32.62 1.39L32.62 1.39Q32.82 0.31 33.05 0.31L33.05 0.31L33.05 0.31Q33.35 0.31 33.80 0.56L33.80 0.56L33.80 0.56Q34.24 0.81 34.58 1.15L34.58 1.15L34.58 1.15Q34.92 1.48 34.92 1.74L34.92 1.74L34.92 1.74Q34.92 2.06 34.80 2.39L34.80 2.39L34.80 2.39Q34.68 2.72 34.41 3.29L34.41 3.29L34.41 3.29Q34.65 3.26 35.62 3.09L35.62 3.09L35.94 3.04L35.94 3.04Q36.19 3.18 36.32 3.44L36.32 3.44L36.32 3.44Q36.46 3.71 36.46 4.02L36.46 4.02L36.46 4.02Q36.46 4.27 36.36 4.51L36.36 4.51L36.36 4.51Q36.26 4.75 36.06 4.91L36.06 4.91ZM40.07 2.59L40.07 2.59Q41.06 2.70 41.88 3.18L41.88 3.18L41.88 3.18Q42.70 3.67 43.16 4.34L43.16 4.34L43.16 4.34Q43.62 5.01 43.62 5.68L43.62 5.68L43.62 5.68Q43.62 6.69 43.11 7.83L43.11 7.83L43.11 7.83Q42.59 8.96 41.66 9.73L41.66 9.73L41.66 9.73Q40.74 10.50 39.61 10.50L39.61 10.50L39.61 10.50Q39.05 10.50 38.42 10.09L38.42 10.09L38.42 10.09Q37.79 9.67 37.36 9.08L37.36 9.08L37.36 9.08Q36.93 8.48 36.93 8.02L36.93 8.02L36.93 8.02Q36.93 7.17 37.14 6.26L37.14 6.26L37.14 6.26Q37.35 5.36 37.79 4.51L37.79 4.51L37.79 4.51Q38.19 4.28 38.60 4.28L38.60 4.28L38.60 4.28Q38.78 4.28 38.93 4.33L38.93 4.33L38.93 4.33Q38.88 4.16 38.88 3.93L38.88 3.93L38.88 3.93Q38.88 3.49 39.19 3.12L39.19 3.12L39.19 3.12Q39.51 2.76 40.07 2.59L40.07 2.59ZM39.10 8.90L39.10 8.90Q40.26 8.51 40.91 7.56L40.91 7.56L40.91 7.56Q41.55 6.61 41.76 5.29L41.76 5.29L41.76 5.29Q41.13 4.84 40.05 4.84L40.05 4.84L40.05 4.84Q39.79 4.84 39.65 4.86L39.65 4.86L39.65 4.86Q39.80 5.14 39.80 5.49L39.80 5.49L39.80 5.49Q39.44 6.06 39.24 6.75L39.24 6.75L39.24 6.75Q39.05 7.45 39.05 8.15L39.05 8.15L39.05 8.15Q39.05 8.57 39.10 8.90L39.10 8.90ZM49.14 2.84L49.14 2.84Q49.88 2.84 50.46 3.19L50.46 3.19L50.46 3.19Q51.03 3.54 51.35 4.15L51.35 4.15L51.35 4.15Q51.66 4.76 51.66 5.52L51.66 5.52L51.66 5.52Q51.66 6.64 51.02 7.80L51.02 7.80L51.02 7.80Q50.39 8.97 49.36 9.74L49.36 9.74L49.36 9.74Q48.33 10.50 47.22 10.50L47.22 10.50L47.22 10.50Q46.75 10.50 46.27 10.12L46.27 10.12L46.27 10.12Q46.10 10.82 46.01 11.56L46.01 11.56L46.01 11.56Q45.92 12.29 45.91 12.42L45.91 12.42L45.91 12.42Q45.79 13.37 45.69 13.79L45.69 13.79L45.69 13.79Q45.58 14.21 45.36 14.21L45.36 14.21L45.36 14.21Q45.00 14.21 44.56 13.97L44.56 13.97L44.56 13.97Q44.11 13.73 43.80 13.41L43.80 13.41L43.80 13.41Q43.48 13.08 43.48 12.84L43.48 12.84L43.48 12.84Q43.48 12.57 43.72 11.66L43.72 11.66L43.72 11.66Q43.96 10.75 44.45 9.03L44.45 9.03L44.45 9.03Q44.88 7.49 45.12 6.61L45.12 6.61L45.12 6.61Q45.36 5.73 45.36 5.49L45.36 5.49L45.36 5.49Q45.36 5.38 45.24 5.26L45.24 5.26L45.24 5.26Q45.12 5.14 44.86 4.91L44.86 4.91L44.86 4.91Q44.56 4.68 44.42 4.54L44.42 4.54L44.42 4.54Q44.28 4.40 44.28 4.24L44.28 4.24L44.28 4.24Q44.28 3.95 44.56 3.56L44.56 3.56L44.56 3.56Q44.83 3.16 45.20 2.88L45.20 2.88L45.20 2.88Q45.57 2.60 45.84 2.60L45.84 2.60L45.84 2.60Q46.24 2.60 46.76 3.05L46.76 3.05L46.76 3.05Q47.28 3.50 47.50 3.95L47.50 3.95L48.05 3.02L48.05 3.02Q48.59 2.84 49.14 2.84L49.14 2.84ZM47.22 8.71L47.22 8.71Q47.67 8.71 48.20 8.24L48.20 8.24L48.20 8.24Q48.73 7.77 49.10 7.08L49.10 7.08L49.10 7.08Q49.46 6.38 49.46 5.75L49.46 5.75L49.46 5.75Q49.46 5.29 49.24 5.04L49.24 5.04L49.24 5.04Q49.01 4.79 48.59 4.79L48.59 4.79L48.59 4.79Q48.10 4.79 47.71 5.34L47.71 5.34L47.71 5.34Q47.31 5.89 47.08 6.69L47.08 6.69L47.08 6.69Q46.84 7.49 46.84 8.16L46.84 8.16L46.84 8.16Q46.84 8.43 46.95 8.57L46.95 8.57L46.95 8.57Q47.05 8.71 47.22 8.71L47.22 8.71ZM60.47 9.67L60.47 9.67Q60.06 10.00 59.42 10.27L59.42 10.27L59.42 10.27Q58.77 10.54 58.41 10.54L58.41 10.54L58.41 10.54Q57.97 10.54 57.41 10.04L57.41 10.04L57.41 10.04Q56.84 9.55 56.46 8.86L56.46 8.86L56.46 8.86Q56.07 8.16 56.10 7.63L56.10 7.63L56.10 7.63Q56.20 6.13 56.78 4.48L56.78 4.48L56.78 4.48Q57.37 2.83 58.41 1.69L58.41 1.69L58.41 1.69Q59.44 0.56 60.79 0.56L60.79 0.56L60.79 0.56Q61.50 0.56 62.07 0.93L62.07 0.93L62.07 0.93Q62.64 1.30 62.95 1.90L62.95 1.90L62.95 1.90Q63.27 2.49 63.27 3.14L63.27 3.14L63.27 3.14Q63.27 3.61 62.93 3.89L62.93 3.89L62.93 3.89Q62.59 4.17 62.08 4.17L62.08 4.17L62.08 4.17Q61.64 4.17 61.14 3.96L61.14 3.96L61.14 3.96Q61.17 3.63 61.17 3.51L61.17 3.51L61.17 3.51Q61.17 2.98 61.02 2.72L61.02 2.72L61.02 2.72Q60.87 2.45 60.61 2.45L60.61 2.45L60.61 2.45Q60.16 2.45 59.58 3.42L59.58 3.42L59.58 3.42Q59.01 4.40 58.58 5.84L58.58 5.84L58.58 5.84Q58.16 7.28 58.10 8.60L58.10 8.60L58.10 8.60Q59.47 8.58 61.19 7.92L61.19 7.92L61.25 7.28L61.25 7.28Q60.97 7.31 60.79 7.31L60.79 7.31L60.79 7.31Q60.35 7.31 60.03 7.22L60.03 7.22L60.03 7.22Q59.71 7.14 59.65 6.97L59.65 6.97L59.65 6.97Q59.60 6.85 59.60 6.59L59.60 6.59L59.60 6.59Q59.60 6.26 59.69 5.89L59.69 5.89L59.69 5.89Q59.78 5.53 59.89 5.40L59.89 5.40L59.89 5.40Q60.09 5.18 60.38 5.11L60.38 5.11L60.38 5.11Q60.66 5.04 61.22 5.04L61.22 5.04L61.22 5.04Q62.29 5.04 62.71 5.51L62.71 5.51L62.71 5.51Q63.14 5.98 63.14 6.89L63.14 6.89L63.14 6.89Q63.14 7.57 62.89 8.74L62.89 8.74L62.89 8.74Q62.64 9.91 62.27 10.79L62.27 10.79L62.27 10.79Q61.91 11.68 61.57 11.68L61.57 11.68L61.57 11.68Q61.29 11.68 60.95 11.55L60.95 11.55L60.95 11.55Q60.61 11.42 60.37 11.23L60.37 11.23L60.37 11.23Q60.13 11.05 60.13 10.89L60.13 10.89L60.13 10.89Q60.14 10.67 60.29 10.36L60.29 10.36L60.29 10.36Q60.44 10.05 60.61 9.81L60.61 9.81L60.47 9.67ZM66.99 10.50L66.99 10.50Q66.32 10.50 65.59 10.06L65.59 10.06L65.59 10.06Q64.86 9.62 64.39 8.97L64.39 8.97L64.39 8.97Q63.91 8.33 63.91 7.76L63.91 7.76L63.91 7.76Q63.91 6.73 64.39 5.52L64.39 5.52L64.39 5.52Q64.88 4.30 65.73 3.45L65.73 3.45L65.73 3.45Q66.58 2.60 67.66 2.60L67.66 2.60L67.66 2.60Q68.43 2.60 69.06 2.94L69.06 2.94L69.06 2.94Q69.68 3.28 70.03 3.78L70.03 3.78L70.03 3.78Q70.38 4.28 70.38 4.76L70.38 4.76L70.38 4.76Q70.38 5.35 69.85 5.92L69.85 5.92L69.85 5.92Q69.31 6.48 68.36 6.91L68.36 6.91L68.36 6.91Q67.41 7.34 66.19 7.52L66.19 7.52L66.19 7.52Q66.18 7.69 66.18 8.02L66.18 8.02L66.18 8.02Q66.18 8.44 66.21 8.65L66.21 8.65L66.21 8.65Q66.91 8.58 67.59 8.27L67.59 8.27L67.59 8.27Q68.28 7.97 69.09 7.41L69.09 7.41L69.09 7.41Q69.64 7.57 69.92 7.94L69.92 7.94L69.92 7.94Q70.20 8.30 70.20 8.81L70.20 8.81L70.20 8.81Q70.20 9.23 69.69 9.63L69.69 9.63L69.69 9.63Q69.17 10.02 68.42 10.26L68.42 10.26L68.42 10.26Q67.66 10.50 66.99 10.50L66.99 10.50ZM66.40 6.47L66.40 6.47Q67.26 6.16 67.83 5.68L67.83 5.68L67.83 5.68Q68.40 5.21 68.40 4.87L68.40 4.87L68.40 4.87Q68.40 4.48 67.86 4.34L67.86 4.34L67.86 4.34Q67.33 4.73 66.95 5.28L66.95 5.28L66.95 5.28Q66.58 5.82 66.40 6.47L66.40 6.47ZM78.58 7.55L78.58 7.55Q79.20 7.76 79.50 8.13L79.50 8.13L79.50 8.13Q79.80 8.50 79.80 8.97L79.80 8.97L79.80 8.97Q79.80 9.31 79.32 9.67L79.32 9.67L79.32 9.67Q78.85 10.02 78.19 10.26L78.19 10.26L78.19 10.26Q77.53 10.50 77.07 10.50L77.07 10.50L77.07 10.50Q76.75 10.50 76.33 10.25L76.33 10.25L76.33 10.25Q75.91 10.00 75.61 9.67L75.61 9.67L75.61 9.67Q75.31 9.34 75.31 9.16L75.31 9.16L75.31 9.16Q75.31 9.02 75.61 8.06L75.61 8.06L75.61 8.06Q76.16 6.40 76.16 5.96L76.16 5.96L76.16 5.96Q76.16 5.80 76.08 5.80L76.08 5.80L76.08 5.80Q75.52 5.80 73.99 7.76L73.99 7.76L73.99 7.76Q73.93 7.98 73.87 8.32L73.87 8.32L73.87 8.32Q73.81 8.65 73.78 8.79L73.78 8.79L73.78 8.79Q73.63 9.62 73.49 10.06L73.49 10.06L73.49 10.06Q73.36 10.50 73.15 10.50L73.15 10.50L73.15 10.50Q72.79 10.50 72.33 10.26L72.33 10.26L72.33 10.26Q71.88 10.01 71.55 9.68L71.55 9.68L71.55 9.68Q71.22 9.35 71.22 9.13L71.22 9.13L71.22 9.13Q71.22 8.88 71.40 8.39L71.40 8.39L71.40 8.39Q71.58 7.90 71.95 7.04L71.95 7.04L71.95 7.04Q72.23 6.38 72.37 6.01L72.37 6.01L72.37 6.01Q72.51 5.64 72.51 5.49L72.51 5.49L72.51 5.49Q72.51 5.38 72.37 5.24L72.37 5.24L72.37 5.24Q72.24 5.11 71.97 4.91L71.97 4.91L71.97 4.91Q71.67 4.68 71.52 4.54L71.52 4.54L71.52 4.54Q71.37 4.40 71.37 4.24L71.37 4.24L71.37 4.24Q71.37 3.95 71.64 3.56L71.64 3.56L71.64 3.56Q71.92 3.16 72.29 2.88L72.29 2.88L72.29 2.88Q72.66 2.60 72.93 2.60L72.93 2.60L72.93 2.60Q73.22 2.60 73.60 2.87L73.60 2.87L73.60 2.87Q73.99 3.14 74.28 3.48L74.28 3.48L74.28 3.48Q74.56 3.82 74.56 4.00L74.56 4.00L74.56 4.00Q74.56 4.34 74.49 4.83L74.49 4.83L74.49 4.83Q74.41 5.32 74.28 5.80L74.28 5.80L74.28 5.80Q75.31 4.45 75.98 3.72L75.98 3.72L75.98 3.72Q76.65 2.98 77.03 2.98L77.03 2.98L77.03 2.98Q77.29 2.98 77.67 3.25L77.67 3.25L77.67 3.25Q78.05 3.51 78.32 3.86L78.32 3.86L78.32 3.86Q78.60 4.20 78.60 4.38L78.60 4.38L78.60 4.38Q78.58 4.62 78.40 5.19L78.40 5.19L78.40 5.19Q78.22 5.77 77.88 6.72L77.88 6.72L77.88 6.72Q77.43 7.95 77.31 8.39L77.31 8.39L77.31 8.39Q77.74 8.16 77.99 8.00L77.99 8.00L77.99 8.00Q78.23 7.84 78.58 7.55L78.58 7.55ZM83.51 10.50L83.51 10.50Q82.84 10.50 82.11 10.06L82.11 10.06L82.11 10.06Q81.38 9.62 80.91 8.97L80.91 8.97L80.91 8.97Q80.43 8.33 80.43 7.76L80.43 7.76L80.43 7.76Q80.43 6.73 80.91 5.52L80.91 5.52L80.91 5.52Q81.40 4.30 82.25 3.45L82.25 3.45L82.25 3.45Q83.10 2.60 84.18 2.60L84.18 2.60L84.18 2.60Q84.95 2.60 85.57 2.94L85.57 2.94L85.57 2.94Q86.20 3.28 86.55 3.78L86.55 3.78L86.55 3.78Q86.90 4.28 86.90 4.76L86.90 4.76L86.90 4.76Q86.90 5.35 86.37 5.92L86.37 5.92L86.37 5.92Q85.83 6.48 84.88 6.91L84.88 6.91L84.88 6.91Q83.93 7.34 82.71 7.52L82.71 7.52L82.71 7.52Q82.70 7.69 82.70 8.02L82.70 8.02L82.70 8.02Q82.70 8.44 82.73 8.65L82.73 8.65L82.73 8.65Q83.43 8.58 84.11 8.27L84.11 8.27L84.11 8.27Q84.80 7.97 85.61 7.41L85.61 7.41L85.61 7.41Q86.16 7.57 86.44 7.94L86.44 7.94L86.44 7.94Q86.72 8.30 86.72 8.81L86.72 8.81L86.72 8.81Q86.72 9.23 86.20 9.63L86.20 9.63L86.20 9.63Q85.69 10.02 84.94 10.26L84.94 10.26L84.94 10.26Q84.18 10.50 83.51 10.50L83.51 10.50ZM82.92 6.47L82.92 6.47Q83.78 6.16 84.35 5.68L84.35 5.68L84.35 5.68Q84.92 5.21 84.92 4.87L84.92 4.87L84.92 4.87Q84.92 4.48 84.38 4.34L84.38 4.34L84.38 4.34Q83.85 4.73 83.47 5.28L83.47 5.28L83.47 5.28Q83.10 5.82 82.92 6.47L82.92 6.47ZM90.02 10.50L90.02 10.50Q89.64 10.50 89.19 10.26L89.19 10.26L89.19 10.26Q88.75 10.01 88.42 9.68L88.42 9.68L88.42 9.68Q88.10 9.35 88.10 9.13L88.10 9.13L88.10 9.13Q88.10 8.86 88.21 8.44L88.21 8.44L88.21 8.44Q88.33 8.01 88.55 7.32L88.55 7.32L88.55 7.32Q88.77 6.61 88.89 6.18L88.89 6.18L88.89 6.18Q89.00 5.75 89.00 5.49L89.00 5.49L89.00 5.49Q89.00 5.38 88.87 5.25L88.87 5.25L88.87 5.25Q88.75 5.12 88.48 4.91L88.48 4.91L88.48 4.91Q88.17 4.66 88.03 4.52L88.03 4.52L88.03 4.52Q87.89 4.38 87.89 4.24L87.89 4.24L87.89 4.24Q87.89 3.95 88.17 3.56L88.17 3.56L88.17 3.56Q88.45 3.16 88.83 2.88L88.83 2.88L88.83 2.88Q89.21 2.60 89.47 2.60L89.47 2.60L89.47 2.60Q89.77 2.60 90.15 2.87L90.15 2.87L90.15 2.87Q90.52 3.14 90.80 3.48L90.80 3.48L90.80 3.48Q91.08 3.82 91.08 4.00L91.08 4.00L91.08 4.00Q91.08 4.54 90.87 5.40L90.87 5.40L91.04 5.49L91.04 5.49Q91.36 4.97 91.75 4.25L91.75 4.25L91.75 4.25Q92.13 3.53 92.22 3.36L92.22 3.36L92.48 2.86L92.48 2.86Q93.45 2.83 93.93 3.21L93.93 3.21L93.93 3.21Q94.40 3.58 94.40 4.21L94.40 4.21L94.40 4.21Q94.40 4.83 94.00 5.45L94.00 5.45L94.00 5.45Q92.99 5.78 92.28 6.11L92.28 6.11L92.28 6.11Q91.57 6.44 90.86 6.89L90.86 6.89L90.86 6.89Q90.82 8.44 90.61 9.47L90.61 9.47L90.61 9.47Q90.41 10.50 90.02 10.50L90.02 10.50ZM101.04 8.44L101.04 8.44Q101.89 8.02 102.48 7.55L102.48 7.55L102.48 7.55Q103.10 7.76 103.40 8.13L103.40 8.13L103.40 8.13Q103.70 8.50 103.70 8.97L103.70 8.97L103.70 8.97Q103.70 9.31 103.22 9.67L103.22 9.67L103.22 9.67Q102.75 10.02 102.09 10.26L102.09 10.26L102.09 10.26Q101.43 10.50 100.97 10.50L100.97 10.50L100.97 10.50Q100.65 10.50 100.23 10.26L100.23 10.26L100.23 10.26Q99.82 10.02 99.52 9.70L99.52 9.70L99.52 9.70Q99.22 9.38 99.22 9.20L99.22 9.20L99.22 9.20Q99.22 9.06 99.34 8.82L99.34 8.82L99.34 8.82Q99.46 8.58 99.60 8.33L99.60 8.33L99.60 8.33Q99.74 8.08 99.78 7.99L99.78 7.99L99.43 7.80L99.43 7.80Q98.69 9.02 98.01 9.76L98.01 9.76L98.01 9.76Q97.33 10.50 96.67 10.50L96.67 10.50L96.67 10.50Q96.22 10.50 95.72 10.11L95.72 10.11L95.72 10.11Q95.23 9.72 94.88 9.16L94.88 9.16L94.88 9.16Q94.54 8.60 94.54 8.16L94.54 8.16L94.54 8.16Q94.54 6.92 95.06 5.61L95.06 5.61L95.06 5.61Q95.58 4.31 96.51 3.46L96.51 3.46L96.51 3.46Q97.44 2.60 98.62 2.60L98.62 2.60L98.62 2.60Q99.04 2.60 99.47 2.98L99.47 2.98L99.47 2.98Q99.90 3.36 100.03 3.75L100.03 3.75L100.03 3.75Q100.10 3.44 100.23 3.21L100.23 3.21L100.23 3.21Q100.37 2.98 100.52 2.98L100.52 2.98L100.52 2.98Q100.88 2.98 101.32 3.24L101.32 3.24L101.32 3.24Q101.77 3.50 102.07 3.84L102.07 3.84L102.07 3.84Q102.38 4.19 102.38 4.38L102.38 4.38L102.38 4.38Q102.37 4.65 102.16 5.26L102.16 5.26L102.16 5.26Q101.96 5.88 101.51 7.14L101.51 7.14L101.51 7.14Q101.25 7.83 101.04 8.44L101.04 8.44ZM96.74 8.55L96.74 8.55Q97.87 7.85 98.71 6.82L98.71 6.82L98.71 6.82Q99.55 5.80 99.86 4.55L99.86 4.55L99.86 4.55Q99.48 4.38 99.15 4.38L99.15 4.38L99.15 4.38Q98.49 4.38 97.97 4.97L97.97 4.97L97.97 4.97Q97.45 5.56 97.15 6.51L97.15 6.51L97.15 6.51Q96.84 7.46 96.74 8.55L96.74 8.55ZM109.52 4.91L107.44 5.00L107.44 5.00Q106.97 7.11 106.83 8.44L106.83 8.44L106.83 8.44Q107.73 8.01 108.28 7.55L108.28 7.55L108.28 7.55Q108.89 7.76 109.19 8.13L109.19 8.13L109.19 8.13Q109.49 8.50 109.49 8.97L109.49 8.97L109.49 8.97Q109.49 9.31 109.02 9.67L109.02 9.67L109.02 9.67Q108.54 10.02 107.88 10.26L107.88 10.26L107.88 10.26Q107.23 10.50 106.76 10.50L106.76 10.50L106.76 10.50Q106.36 10.50 105.86 10.26L105.86 10.26L105.86 10.26Q105.36 10.01 105.01 9.68L105.01 9.68L105.01 9.68Q104.66 9.35 104.66 9.11L104.66 9.11L104.66 9.11Q104.66 8.92 104.81 8.27L104.81 8.27L104.81 8.27Q104.96 7.62 105.08 7.15L105.08 7.15L105.08 7.15Q105.20 6.68 105.25 6.45L105.25 6.45L105.59 5.11L104.73 5.17L104.73 5.17Q104.50 5.05 104.37 4.82L104.37 4.82L104.37 4.82Q104.24 4.58 104.24 4.27L104.24 4.27L104.24 4.27Q104.24 3.71 104.65 3.32L104.65 3.32L104.65 3.32Q105.15 3.35 105.88 3.37L105.88 3.37L105.88 3.37Q105.88 2.48 106.08 1.39L106.08 1.39L106.08 1.39Q106.27 0.31 106.51 0.31L106.51 0.31L106.51 0.31Q106.81 0.31 107.25 0.56L107.25 0.56L107.25 0.56Q107.70 0.81 108.04 1.15L108.04 1.15L108.04 1.15Q108.37 1.48 108.37 1.74L108.37 1.74L108.37 1.74Q108.37 2.06 108.25 2.39L108.25 2.39L108.25 2.39Q108.14 2.72 107.87 3.29L107.87 3.29L107.87 3.29Q108.11 3.26 109.07 3.09L109.07 3.09L109.40 3.04L109.40 3.04Q109.65 3.18 109.78 3.44L109.78 3.44L109.78 3.44Q109.91 3.71 109.91 4.02L109.91 4.02L109.91 4.02Q109.91 4.27 109.82 4.51L109.82 4.51L109.82 4.51Q109.72 4.75 109.52 4.91L109.52 4.91ZM113.32 2.20L113.32 2.20Q113.05 2.20 112.68 1.98L112.68 1.98L112.68 1.98Q112.31 1.76 112.04 1.46L112.04 1.46L112.04 1.46Q111.78 1.16 111.78 0.92L111.78 0.92L111.78 0.92Q111.78 0.55 111.97 0.17L111.97 0.17L111.97 0.17Q112.17-0.21 112.46-0.38L112.46-0.38L112.46-0.38Q112.60-0.45 112.91-0.45L112.91-0.45L112.91-0.45Q113.41-0.45 113.92-0.22L113.92-0.22L113.92-0.22Q114.44 0 114.55 0.34L114.55 0.34L114.55 0.34Q114.58 0.41 114.58 0.55L114.58 0.55L114.58 0.55Q114.58 0.87 114.38 1.26L114.38 1.26L114.38 1.26Q114.18 1.65 113.89 1.92L113.89 1.92L113.89 1.92Q113.60 2.20 113.32 2.20L113.32 2.20ZM112.36 10.50L112.36 10.50Q112.00 10.50 111.54 10.26L111.54 10.26L111.54 10.26Q111.09 10.01 110.76 9.68L110.76 9.68L110.76 9.68Q110.43 9.35 110.43 9.13L110.43 9.13L110.43 9.13Q110.43 8.88 110.61 8.39L110.61 8.39L110.61 8.39Q110.80 7.90 111.16 7.04L111.16 7.04L111.16 7.04Q111.44 6.38 111.58 6.01L111.58 6.01L111.58 6.01Q111.72 5.64 111.72 5.49L111.72 5.49L111.72 5.49Q111.72 5.38 111.59 5.24L111.59 5.24L111.59 5.24Q111.45 5.11 111.19 4.91L111.19 4.91L111.19 4.91Q110.88 4.68 110.73 4.54L110.73 4.54L110.73 4.54Q110.59 4.40 110.59 4.24L110.59 4.24L110.59 4.24Q110.59 3.95 110.86 3.56L110.86 3.56L110.86 3.56Q111.13 3.16 111.50 2.88L111.50 2.88L111.50 2.88Q111.87 2.60 112.14 2.60L112.14 2.60L112.14 2.60Q112.46 2.60 112.85 2.88L112.85 2.88L112.85 2.88Q113.23 3.16 113.50 3.55L113.50 3.55L113.50 3.55Q113.78 3.93 113.78 4.17L113.78 4.17L113.78 4.17Q113.78 4.79 113.46 5.93L113.46 5.93L113.46 5.93Q113.15 7.07 112.66 8.39L112.66 8.39L112.66 8.39Q112.99 8.23 113.25 8.06L113.25 8.06L113.25 8.06Q113.50 7.90 113.95 7.55L113.95 7.55L113.95 7.55Q114.58 7.76 114.87 8.14L114.87 8.14L114.87 8.14Q115.16 8.53 115.16 8.97L115.16 8.97L115.16 8.97Q115.16 9.34 114.69 9.69L114.69 9.69L114.69 9.69Q114.23 10.04 113.55 10.27L113.55 10.27L113.55 10.27Q112.88 10.50 112.36 10.50L112.36 10.50ZM118.92 2.59L118.92 2.59Q119.91 2.70 120.73 3.18L120.73 3.18L120.73 3.18Q121.55 3.67 122.01 4.34L122.01 4.34L122.01 4.34Q122.47 5.01 122.47 5.68L122.47 5.68L122.47 5.68Q122.47 6.69 121.95 7.83L121.95 7.83L121.95 7.83Q121.44 8.96 120.51 9.73L120.51 9.73L120.51 9.73Q119.59 10.50 118.45 10.50L118.45 10.50L118.45 10.50Q117.89 10.50 117.26 10.09L117.26 10.09L117.26 10.09Q116.63 9.67 116.21 9.08L116.21 9.08L116.21 9.08Q115.78 8.48 115.78 8.02L115.78 8.02L115.78 8.02Q115.78 7.17 115.99 6.26L115.99 6.26L115.99 6.26Q116.20 5.36 116.63 4.51L116.63 4.51L116.63 4.51Q117.04 4.28 117.45 4.28L117.45 4.28L117.45 4.28Q117.63 4.28 117.78 4.33L117.78 4.33L117.78 4.33Q117.73 4.16 117.73 3.93L117.73 3.93L117.73 3.93Q117.73 3.49 118.04 3.12L118.04 3.12L118.04 3.12Q118.36 2.76 118.92 2.59L118.92 2.59ZM117.95 8.90L117.95 8.90Q119.11 8.51 119.76 7.56L119.76 7.56L119.76 7.56Q120.40 6.61 120.61 5.29L120.61 5.29L120.61 5.29Q119.98 4.84 118.90 4.84L118.90 4.84L118.90 4.84Q118.64 4.84 118.50 4.86L118.50 4.86L118.50 4.86Q118.65 5.14 118.65 5.49L118.65 5.49L118.65 5.49Q118.29 6.06 118.09 6.75L118.09 6.75L118.09 6.75Q117.89 7.45 117.89 8.15L117.89 8.15L117.89 8.15Q117.89 8.57 117.95 8.90L117.95 8.90ZM130.34 7.55L130.34 7.55Q130.96 7.76 131.26 8.13L131.26 8.13L131.26 8.13Q131.56 8.50 131.56 8.97L131.56 8.97L131.56 8.97Q131.56 9.31 131.08 9.67L131.08 9.67L131.08 9.67Q130.61 10.02 129.95 10.26L129.95 10.26L129.95 10.26Q129.29 10.50 128.83 10.50L128.83 10.50L128.83 10.50Q128.51 10.50 128.09 10.25L128.09 10.25L128.09 10.25Q127.67 10.00 127.36 9.67L127.36 9.67L127.36 9.67Q127.06 9.34 127.06 9.16L127.06 9.16L127.06 9.16Q127.06 9.02 127.37 8.06L127.37 8.06L127.37 8.06Q127.92 6.40 127.92 5.96L127.92 5.96L127.92 5.96Q127.92 5.80 127.83 5.80L127.83 5.80L127.83 5.80Q127.27 5.80 125.75 7.76L125.75 7.76L125.75 7.76Q125.69 7.98 125.63 8.32L125.63 8.32L125.63 8.32Q125.57 8.65 125.54 8.79L125.54 8.79L125.54 8.79Q125.38 9.62 125.25 10.06L125.25 10.06L125.25 10.06Q125.12 10.50 124.91 10.50L124.91 10.50L124.91 10.50Q124.54 10.50 124.09 10.26L124.09 10.26L124.09 10.26Q123.63 10.01 123.30 9.68L123.30 9.68L123.30 9.68Q122.98 9.35 122.98 9.13L122.98 9.13L122.98 9.13Q122.98 8.88 123.16 8.39L123.16 8.39L123.16 8.39Q123.34 7.90 123.70 7.04L123.70 7.04L123.70 7.04Q123.98 6.38 124.12 6.01L124.12 6.01L124.12 6.01Q124.26 5.64 124.26 5.49L124.26 5.49L124.26 5.49Q124.26 5.38 124.13 5.24L124.13 5.24L124.13 5.24Q124.00 5.11 123.73 4.91L123.73 4.91L123.73 4.91Q123.42 4.68 123.28 4.54L123.28 4.54L123.28 4.54Q123.13 4.40 123.13 4.24L123.13 4.24L123.13 4.24Q123.13 3.95 123.40 3.56L123.40 3.56L123.40 3.56Q123.68 3.16 124.05 2.88L124.05 2.88L124.05 2.88Q124.42 2.60 124.68 2.60L124.68 2.60L124.68 2.60Q124.98 2.60 125.36 2.87L125.36 2.87L125.36 2.87Q125.75 3.14 126.03 3.48L126.03 3.48L126.03 3.48Q126.32 3.82 126.32 4.00L126.32 4.00L126.32 4.00Q126.32 4.34 126.24 4.83L126.24 4.83L126.24 4.83Q126.17 5.32 126.04 5.80L126.04 5.80L126.04 5.80Q127.06 4.45 127.74 3.72L127.74 3.72L127.74 3.72Q128.41 2.98 128.79 2.98L128.79 2.98L128.79 2.98Q129.05 2.98 129.43 3.25L129.43 3.25L129.43 3.25Q129.81 3.51 130.08 3.86L130.08 3.86L130.08 3.86Q130.35 4.20 130.35 4.38L130.35 4.38L130.35 4.38Q130.34 4.62 130.16 5.19L130.16 5.19L130.16 5.19Q129.98 5.77 129.64 6.72L129.64 6.72L129.64 6.72Q129.19 7.95 129.07 8.39L129.07 8.39L129.07 8.39Q129.50 8.16 129.74 8.00L129.74 8.00L129.74 8.00Q129.99 7.84 130.34 7.55L130.34 7.55Z"></path></g><defs data-v-423bf9ae=""><linearGradient data-v-423bf9ae="" gradientTransform="rotate(25)" id="88c1898a-3ba1-4819-99da-4d8bbf974d7e" x1="0%" y1="0%" x2="100%" y2="0%"><stop data-v-423bf9ae="" offset="0%" style="stop-color: rgb(154, 224, 27); stop-opacity: 1;"></stop><stop data-v-423bf9ae="" offset="100%" style="stop-color: rgb(92, 136, 12); stop-opacity: 1;"></stop></linearGradient></defs><g data-v-423bf9ae="" id="e52f5035-d365-40e5-978c-b6335beac363" transform="matrix(1.0266004774305555,0,0,1.0266004774305555,-1.7949773868610563,-3.526779205515048)" stroke="none" fill="url(#88c1898a-3ba1-4819-99da-4d8bbf974d7e)"><path clip-rule="evenodd" d="M21.326 78.783c.291.051.594.066.871.158 2.272.746 2.977 4.131 1.448 5.687-1.586 1.612-4.13 2.25-6.358 1.338-2.797-1.144-4.439-4.597-3.752-7.761.488-2.244 1.837-3.832 3.646-5.108 1.126-.795 2.354-1.347 3.745-1.466 2.562-.219 4.665.826 6.348 2.611 3.769 4 5.467 8.769 4.762 14.264-.354 2.768-1.692 5.002-4.197 6.407-1.257.705-2.622 1.083-4.054 1.196-2.283.183-4.56.07-6.749-.617-4.473-1.407-7.809-4.283-10.268-8.226-2.205-3.536-3.417-7.437-4.151-11.5-.941-5.209-.978-10.46-.561-15.718a73.537 73.537 0 0 1 1.786-11.297c1.227-5.143 2.859-10.134 5.529-14.739 2.911-5.022 6.22-9.736 10.523-13.685 2.893-2.653 6.101-4.787 9.883-5.974 1.676-.526 3.36-.811 5.123-.483 2.692.501 5.019 1.769 7.153 3.407 4.874 3.739 8.612 8.447 11.616 13.769.085.152.175.301.262.452l.174-.02 2.834-12.457c.11.146.219.279.315.42 1.062 1.536 1.753 3.245 2.276 5.02.731 2.479 1.402 4.977 2.128 7.458.219.747.535 1.465.813 2.215.549-.376.798-.818.968-1.7.3-1.553.21-3.114.062-4.672-.339-3.557-1.062-7.044-1.953-10.498-.938-3.637-2.025-7.226-3.598-10.649-.23-.501-.488-.992-.771-1.465-.272-.455-.592-.88-.917-1.357 7.676 3.589 14.391 8.46 20.393 14.339C82 23.366 86.55 29.22 90.254 35.724c2.522 4.429 4.565 9.067 6.05 13.946a57.19 57.19 0 0 1 2.253 11.443c.085.922.108 1.85.161 2.806-.236.01-.406.028-.575.023-2.257-.063-4.517-.072-6.769-.209-3.715-.227-7.357-.882-10.863-2.171-5.783-2.126-10.068-5.832-12.377-11.666-1.331-3.365-1.146-6.635.598-9.755 1.729-3.092 4.287-4.997 8.014-4.805 1.76.09 3.319.687 4.494 2.101 1.25 1.505 2.027 3.217 2.382 5.133.296 1.6.282 3.186-.403 4.688-.767 1.676-2.062 2.741-3.945 2.812-2.513.094-4.948-2.329-5.033-4.891-.047-1.421.597-2.416 1.907-2.954 1.151-.473 2.302-.584 3.478.062-.447-1.246-1.809-2.044-3.152-1.799-.638.117-1.255.393-1.856.653-2.762 1.194-3.853 3.649-2.833 6.485.938 2.607 2.723 4.493 5.219 5.659 2.544 1.188 5.23.783 7.104-1.102 2.367-2.381 3.569-5.309 3.539-8.659-.036-3.881-1.724-6.999-4.784-9.346-4.035-3.097-9.411-3.137-13.371-.128-2.475 1.88-3.622 4.507-4.068 7.493-.426 2.847-.158 5.669.42 8.467.247 1.199.572 2.382.867 3.597-.073-.043-.14-.075-.199-.116a24.206 24.206 0 0 0-8.688-3.716c-3.021-.647-6.043-.735-9.041.115-.896.253-1.756.631-2.632.951-.009.062-.018.122-.025.183.114.081.237.153.343.246 1.715 1.492 3.387 3.036 5.146 4.473 3.399 2.772 7.059 5.152 11.028 7.041.265.125.444.113.68-.062.912-.678 1.835-1.34 2.765-1.995.861-.607 1.82-.829 2.869-.694 1.105.143 2.024.687 2.889 1.334 1.257.943 2.496 1.909 3.742 2.866h-.32c-4.439.021-8.878.019-13.316.076a8.49 8.49 0 0 1-3.049-.516c-.904-.326-1.816-.633-2.721-.96-6.664-2.413-12.763-5.82-18.226-10.35-.603-.5-.597-.495-.331-1.221 1.687-4.619 3.039-9.319 3.497-14.242.284-3.043.172-6.054-.637-9.015-.176-.644-.425-1.267-.654-1.943-8.386 6.288-15.084 13.71-17.822 24.069 3.917-5.347 8.187-10.353 13.688-14.318-.738 9.214-2.706 17.872-9.126 25.027 3.455-.203 6.767-1.048 10.15-.662 1.127 3.713 3.004 7.112 3.887 10.915-.526-.257-1.081-.492-1.477-.888-1.069-1.071-2.068-2.212-3.101-3.319-.24-.257-.502-.493-.754-.739-.036 2.396.826 4.602 1.003 6.945-.645-.526-1.266-1.06-1.818-1.656-1.741-1.878-3.06-4.05-4.258-6.297-.203-.381-.426-.535-.869-.533-3.681.019-7.361.01-11.042.009h-.541c-1.125-7.813-1.885-15.611-1.998-23.471-1.104 1.79-1.94 3.676-2.664 5.614-1.655 4.434-2.78 9.004-3.478 13.681-.606 4.069-.877 8.154-.605 12.271.179 2.705.621 5.353 1.459 7.933 1.243 3.827 3.576 6.777 7.063 8.797 1.384.802 2.866 1.206 4.448.771a9.628 9.628 0 0 0 3.516-1.8c1.835-1.48 2.691-3.378 2.433-5.74-.227-2.069-1.167-3.812-2.534-5.34-1.028-1.148-2.228-2.058-3.747-2.451-1.463-.379-2.725-.024-3.704 1.153-.863 1.04-1.248 2.28-1.441 3.596-.146.988-.05 1.933.556 2.753 1.032 1.398 3.232 1.672 4.9.771 1.45-.783 1.253-3.113-.04-3.595-.272-.102-.475-.392-.709-.595l.12-.18zM76.605 45.74c-.004.996.803 1.823 1.781 1.825.953.002 1.819-.861 1.818-1.812 0-.974-.869-1.833-1.854-1.83-.932.004-1.741.845-1.745 1.817zM96.158 34.11c-1.877-1.571-4.112-1.804-6.533-1.848 2.785 3.466 4.492 7.392 5.959 11.449 1.141-1.657 2.373-5.197 1.938-6.828-.986.43-1.758.224-2.186-.583-.436-.826-.168-1.565.822-2.19z"></path><path clip-rule="evenodd" d="M78.352 43.924c-.934.003-1.742.844-1.746 1.816-.004.996.803 1.823 1.781 1.825.953.002 1.819-.861 1.818-1.812 0-.974-.869-1.833-1.853-1.829z"></path></g><!----><g data-v-423bf9ae="" id="4692de89-e181-4ea6-a29c-e3b9597ddd3b" fill="#3FC328" transform="matrix(2.4478018947630553,0,0,2.4478018947630553,121.20972527596206,58.699944069153446)"><path d="M2.83 7.83L2.83 7.83L2.83 7.83Q2.84 7.83 2.87 7.81L2.87 7.81L2.87 7.81Q2.84 7.83 2.83 7.83L2.83 7.83ZM4.39 1.67L4.39 1.67Q4.01 0.90 2.66 1.50L2.66 1.50L2.66 1.50Q2.09 1.75 1.52 2.55L1.52 2.55L1.52 2.55Q1.06 3.20 0.64 4.06L0.64 4.06L0.64 4.06Q-0.29 5.91-0.57 8.21L-0.57 8.21L-0.57 8.21Q-0.68 9.15-0.70 9.80L-0.70 9.80L-0.70 9.80Q-0.72 10.74-0.29 11.05L-0.29 11.05L-0.29 11.05Q0.17 11.39 1.31 11.00L1.31 11.00L1.31 11.00Q1.96 10.77 2.55 10.19L2.55 10.19L2.55 10.19Q3.06 9.71 3.38 8.87L3.38 8.87L3.38 8.87Q3.52 8.48 3.58 8.11L3.58 8.11L3.58 8.11Q3.64 7.72 3.53 7.57L3.53 7.57L3.53 7.57Q3.36 7.29 2.69 7.43L2.69 7.43L2.69 7.43Q1.96 7.58 1.35 8.07L1.35 8.07L1.35 8.07Q1.17 8.21 1.37 8.27L1.37 8.27L1.37 8.27Q1.52 8.31 1.69 8.30L1.69 8.30L1.69 8.30Q1.92 8.28 2.15 8.21L2.15 8.21L2.15 8.21Q2.16 8.48 1.97 9.04L1.97 9.04L1.97 9.04Q1.78 9.59 1.52 9.99L1.52 9.99L1.52 9.99Q1.47 10.06 1.44 10.08L1.44 10.08L1.44 10.08Q1.33 10.21 1.24 10.31L1.24 10.31L1.24 10.31Q1.15 10.40 1.02 10.51L1.02 10.51L1.02 10.51Q0.97 10.45 0.92 10.36L0.92 10.36L0.92 10.36Q0.79 10.13 0.77 9.65L0.77 9.65L0.77 9.65Q0.75 9.36 0.85 8.16L0.85 8.16L0.85 8.16Q1.05 5.98 2.00 3.95L2.00 3.95L2.00 3.95Q2.52 2.84 3.00 2.21L3.00 2.21L3.00 2.21Q3.12 2.51 3.13 2.81L3.13 2.81L3.13 2.81Q3.14 3.19 2.95 3.34L2.95 3.34L2.95 3.34Q2.78 3.47 2.99 3.53L2.99 3.53L2.99 3.53Q3.14 3.58 3.29 3.57L3.29 3.57L3.29 3.57Q3.90 3.51 4.27 3.22L4.27 3.22L4.27 3.22Q4.58 2.98 4.58 2.48L4.58 2.48L4.58 2.48Q4.58 2.06 4.39 1.67L4.39 1.67ZM13.85 7.89L13.85 7.89Q13.75 7.90 12.84 7.84L12.84 7.84L12.84 7.84Q13.25 6.63 13.71 5.57L13.71 5.57L13.71 5.57Q13.88 5.18 14.42 3.95L14.42 3.95L14.42 3.95Q14.40 4.61 14.22 7.85L14.22 7.85L14.22 7.85Q14.05 7.87 13.85 7.89L13.85 7.89ZM15.66 1.18L15.66 1.18Q15.48 1.09 15.09 1.16L15.09 1.16L15.09 1.16Q14.45 1.27 14.24 1.55L14.24 1.55L14.24 1.55Q14.04 1.80 13.26 3.58L13.26 3.58L13.26 3.58Q13.13 3.90 12.76 4.70L12.76 4.70L12.76 4.70Q12.45 5.42 12.27 5.83L12.27 5.83L12.27 5.83Q11.85 6.79 11.48 7.86L11.48 7.86L11.48 7.86Q10.55 7.97 9.91 8.37L9.91 8.37L9.91 8.37Q9.73 8.48 9.75 8.58L9.75 8.58L9.75 8.58Q9.78 8.67 9.99 8.68L9.99 8.68L9.99 8.68Q10.51 8.70 10.98 8.43L10.98 8.43L10.98 8.43Q11.12 8.41 11.17 8.41L11.17 8.41L11.17 8.41Q11.23 8.41 11.29 8.41L11.29 8.41L11.29 8.41Q10.97 9.39 10.65 10.53L10.65 10.53L10.65 10.53Q10.58 10.79 11.24 10.67L11.24 10.67L11.24 10.67Q11.54 10.62 11.79 10.49L11.79 10.49L11.79 10.49Q12.07 10.37 12.09 10.27L12.09 10.27L12.09 10.27Q12.36 9.32 12.63 8.48L12.63 8.48L12.63 8.48Q12.93 8.50 13.13 8.47L13.13 8.47L13.13 8.47Q13.83 8.39 14.18 8.46L14.18 8.46L14.18 8.46Q14.08 10.55 14.08 12.02L14.08 12.02L14.08 12.02Q14.08 12.10 14.30 12.11L14.30 12.11L14.30 12.11Q14.52 12.12 14.81 12.06L14.81 12.06L14.81 12.06Q15.54 11.91 15.54 11.62L15.54 11.62L15.54 11.62Q15.54 9.90 15.74 6.45L15.74 6.45L15.74 6.45Q15.94 3.00 15.94 1.27L15.94 1.27L15.94 1.27Q15.94 1.18 15.66 1.18L15.66 1.18ZM30.44 2.21L30.44 2.21Q30.40 2.05 29.85 2.15L29.85 2.15L29.85 2.15Q29.15 2.28 28.98 2.54L28.98 2.54L28.98 2.54Q28.11 4.03 27.17 6.51L27.17 6.51L27.17 6.41L27.17 6.41Q27.17 5.55 27.01 2.12L27.01 2.12L27.01 2.12Q27.00 2.03 26.77 2.02L26.77 2.02L26.77 2.02Q26.63 1.92 26.21 2.00L26.21 2.00L26.21 2.00Q25.50 2.13 25.35 2.39L25.35 2.39L25.35 2.39Q23.22 6.30 22.61 11.14L22.61 11.14L22.61 11.14Q22.60 11.27 22.98 11.23L22.98 11.23L22.98 11.23Q23.23 11.21 23.41 11.16L23.41 11.16L23.41 11.16Q24.05 10.99 24.08 10.75L24.08 10.75L24.08 10.75Q24.48 7.51 25.65 4.58L25.65 4.58L25.65 4.58Q25.70 5.81 25.71 6.71L25.71 6.71L25.71 6.71Q25.72 8.26 25.63 8.86L25.63 8.86L25.63 8.86Q25.45 10.15 25.44 10.99L25.44 10.99L25.44 10.99Q25.44 11.20 26.13 11.03L26.13 11.03L26.13 11.03Q26.80 10.86 26.89 10.66L26.89 10.66L26.89 10.66Q27.37 9.61 28.09 7.67L28.09 7.67L28.09 7.67Q28.88 5.54 29.24 4.66L29.24 4.66L29.24 4.66Q29.29 5.91 29.05 7.85L29.05 7.85L29.05 7.85Q28.71 10.57 28.68 11.04L28.68 11.04L28.68 11.04Q28.67 11.12 28.89 11.12L28.89 11.12L28.89 11.12Q29.11 11.13 29.39 11.08L29.39 11.08L29.39 11.08Q30.11 10.94 30.14 10.65L30.14 10.65L30.14 10.65Q30.19 9.88 30.37 8.54L30.37 8.54L30.37 8.54Q30.56 7.03 30.63 6.43L30.63 6.43L30.63 6.43Q30.86 3.95 30.44 2.21L30.44 2.21ZM39.19 2.53L39.19 2.53Q38.94 3.62 38.33 6.79L38.33 6.79L38.33 6.79Q38.09 8.03 37.90 8.93L37.90 8.93L37.90 8.93Q37.51 10.78 37.50 10.91L37.50 10.91L37.50 10.91Q37.50 10.99 37.73 11.00L37.73 11.00L37.73 11.00Q37.95 11.01 38.23 10.96L38.23 10.96L38.23 10.96Q38.96 10.81 38.96 10.52L38.96 10.52L38.96 10.52Q38.97 10.23 39.13 9.62L39.13 9.62L39.13 9.62Q39.20 9.32 39.36 8.57L39.36 8.57L39.36 8.57Q39.53 7.77 39.79 6.44L39.79 6.44L39.79 6.44Q40.39 3.36 40.63 2.27L40.63 2.27L40.63 2.27Q40.69 2.02 40.04 2.13L40.04 2.13L40.04 2.13Q39.74 2.19 39.49 2.31L39.49 2.31L39.49 2.31Q39.21 2.44 39.19 2.53L39.19 2.53ZM53.25 0.74L53.25 0.74Q52.94 0.79 52.68 0.91L52.68 0.91L52.68 0.91Q52.41 1.04 52.38 1.13L52.38 1.13L52.38 1.13Q51.50 3.96 50.88 7.39L50.88 7.39L50.88 7.39Q50.80 6.88 50.68 6.21L50.68 6.21L50.68 6.21Q50.39 4.44 50.34 4.05L50.34 4.05L50.34 4.05Q50.19 2.77 50.00 2.37L50.00 2.37L50.00 2.37Q50.00 2.37 49.98 2.35L49.98 2.35L49.99 2.34L49.99 2.34Q49.99 2.34 49.99 2.33L49.99 2.33L49.99 2.33Q50.03 2.08 49.40 2.20L49.40 2.20L49.40 2.20Q49.10 2.26 48.85 2.37L48.85 2.37L48.85 2.37Q48.56 2.51 48.55 2.60L48.55 2.60L48.55 2.60Q48.36 3.71 47.72 6.73L47.72 6.73L47.72 6.73Q47.17 9.34 46.97 10.89L46.97 10.89L46.97 10.89Q46.96 11.01 47.34 10.98L47.34 10.98L47.34 10.98Q47.59 10.96 47.76 10.91L47.76 10.91L47.76 10.91Q48.41 10.74 48.43 10.50L48.43 10.50L48.43 10.50Q48.63 8.97 49.18 6.38L49.18 6.38L49.18 6.38Q49.21 6.54 49.22 6.61L49.22 6.61L49.22 6.61Q49.44 7.90 49.62 8.95L49.62 8.95L49.62 8.95Q49.88 10.45 50.10 11.09L50.10 11.09L50.10 11.09Q50.16 11.24 50.50 11.21L50.50 11.21L50.50 11.21Q50.81 11.18 51.15 11.05L51.15 11.05L51.15 11.05Q51.73 10.89 51.77 10.65L51.77 10.65L51.77 10.65Q52.54 5.00 53.83 0.87L53.83 0.87L53.83 0.87Q53.91 0.62 53.25 0.74L53.25 0.74ZM62.89 7.83L62.89 7.83L62.89 7.83Q62.90 7.83 62.93 7.81L62.93 7.81L62.93 7.81Q62.90 7.83 62.89 7.83L62.89 7.83ZM64.45 1.67L64.45 1.67Q64.07 0.90 62.72 1.50L62.72 1.50L62.72 1.50Q62.15 1.75 61.58 2.55L61.58 2.55L61.58 2.55Q61.12 3.20 60.70 4.06L60.70 4.06L60.70 4.06Q59.77 5.91 59.49 8.21L59.49 8.21L59.49 8.21Q59.38 9.15 59.36 9.80L59.36 9.80L59.36 9.80Q59.34 10.74 59.77 11.05L59.77 11.05L59.77 11.05Q60.23 11.39 61.37 11.00L61.37 11.00L61.37 11.00Q62.02 10.77 62.61 10.19L62.61 10.19L62.61 10.19Q63.12 9.71 63.44 8.87L63.44 8.87L63.44 8.87Q63.58 8.48 63.64 8.11L63.64 8.11L63.64 8.11Q63.70 7.72 63.59 7.57L63.59 7.57L63.59 7.57Q63.42 7.29 62.75 7.43L62.75 7.43L62.75 7.43Q62.02 7.58 61.41 8.07L61.41 8.07L61.41 8.07Q61.23 8.21 61.43 8.27L61.43 8.27L61.43 8.27Q61.58 8.31 61.75 8.30L61.75 8.30L61.75 8.30Q61.98 8.28 62.21 8.21L62.21 8.21L62.21 8.21Q62.22 8.48 62.03 9.04L62.03 9.04L62.03 9.04Q61.84 9.59 61.58 9.99L61.58 9.99L61.58 9.99Q61.53 10.06 61.50 10.08L61.50 10.08L61.50 10.08Q61.39 10.21 61.30 10.31L61.30 10.31L61.30 10.31Q61.21 10.40 61.08 10.51L61.08 10.51L61.08 10.51Q61.03 10.45 60.98 10.36L60.98 10.36L60.98 10.36Q60.85 10.13 60.83 9.65L60.83 9.65L60.83 9.65Q60.81 9.36 60.92 8.16L60.92 8.16L60.92 8.16Q61.11 5.98 62.06 3.95L62.06 3.95L62.06 3.95Q62.58 2.84 63.06 2.21L63.06 2.21L63.06 2.21Q63.18 2.51 63.19 2.81L63.19 2.81L63.19 2.81Q63.21 3.19 63.01 3.34L63.01 3.34L63.01 3.34Q62.84 3.47 63.05 3.53L63.05 3.53L63.05 3.53Q63.20 3.58 63.36 3.57L63.36 3.57L63.36 3.57Q63.96 3.51 64.33 3.22L64.33 3.22L64.33 3.22Q64.64 2.98 64.64 2.48L64.64 2.48L64.64 2.48Q64.64 2.06 64.45 1.67L64.45 1.67ZM86.30 1.31L86.30 1.31Q86.00 1.36 85.74 1.48L85.74 1.48L85.74 1.48Q85.46 1.61 85.44 1.70L85.44 1.70L85.44 1.70Q85.24 2.55 84.79 4.25L84.79 4.25L84.79 4.25Q84.34 5.94 84.14 6.80L84.14 6.80L84.14 6.80Q83.49 6.88 82.82 7.03L82.82 7.03L82.82 7.03Q83.02 6.04 83.43 4.31L83.43 4.31L83.43 4.31Q83.90 2.37 84.06 1.59L84.06 1.59L84.06 1.59Q84.12 1.34 83.48 1.46L83.48 1.46L83.48 1.46Q83.18 1.51 82.93 1.63L82.93 1.63L82.93 1.63Q82.65 1.76 82.63 1.85L82.63 1.85L82.63 1.85Q82.46 2.61 81.98 4.64L81.98 4.64L81.98 4.64Q81.56 6.41 81.35 7.44L81.35 7.44L81.35 7.44Q81.21 7.49 81.18 7.50L81.18 7.50L81.18 7.50Q81.02 7.55 80.86 7.66L80.86 7.66L80.86 7.66Q80.60 7.82 80.74 7.91L80.74 7.91L80.74 7.91Q80.91 8.01 81.25 7.94L81.25 7.94L81.25 7.94Q80.92 9.65 80.80 11.08L80.80 11.08L80.80 11.08Q80.79 11.15 81.02 11.16L81.02 11.16L81.02 11.16Q81.23 11.17 81.51 11.12L81.51 11.12L81.51 11.12Q82.24 10.98 82.26 10.69L82.26 10.69L82.26 10.69Q82.38 9.26 82.71 7.53L82.71 7.53L82.71 7.53Q82.92 7.49 83.27 7.42L83.27 7.42L83.27 7.42Q83.64 7.36 84.02 7.33L84.02 7.33L84.02 7.33Q83.56 9.44 83.47 11.13L83.47 11.13L83.47 11.13Q83.47 11.20 83.69 11.21L83.69 11.21L83.69 11.21Q83.90 11.22 84.18 11.17L84.18 11.17L84.18 11.17Q84.92 11.03 84.93 10.74L84.93 10.74L84.93 10.74Q85.01 9.17 85.42 7.25L85.42 7.25L85.42 7.25Q85.76 7.18 86.02 7.02L86.02 7.02L86.02 7.02Q86.19 6.91 86.17 6.82L86.17 6.82L86.17 6.82Q86.14 6.72 85.93 6.71L85.93 6.71L85.93 6.71Q85.76 6.71 85.54 6.71L85.54 6.71L85.54 6.71Q85.75 5.79 86.21 4.07L86.21 4.07L86.21 4.07Q86.69 2.28 86.88 1.44L86.88 1.44L86.88 1.44Q86.94 1.19 86.30 1.31L86.30 1.31ZM96.26 7.89L96.26 7.89Q96.16 7.90 95.26 7.84L95.26 7.84L95.26 7.84Q95.67 6.63 96.13 5.57L96.13 5.57L96.13 5.57Q96.29 5.18 96.84 3.95L96.84 3.95L96.84 3.95Q96.82 4.61 96.63 7.85L96.63 7.85L96.63 7.85Q96.46 7.87 96.26 7.89L96.26 7.89ZM98.08 1.18L98.08 1.18Q97.89 1.09 97.51 1.16L97.51 1.16L97.51 1.16Q96.87 1.27 96.65 1.55L96.65 1.55L96.65 1.55Q96.46 1.80 95.68 3.58L95.68 3.58L95.68 3.58Q95.54 3.90 95.18 4.70L95.18 4.70L95.18 4.70Q94.86 5.42 94.68 5.83L94.68 5.83L94.68 5.83Q94.27 6.79 93.89 7.86L93.89 7.86L93.89 7.86Q92.97 7.97 92.32 8.37L92.32 8.37L92.32 8.37Q92.14 8.48 92.17 8.58L92.17 8.58L92.17 8.58Q92.20 8.67 92.40 8.68L92.40 8.68L92.40 8.68Q92.92 8.70 93.39 8.43L93.39 8.43L93.39 8.43Q93.54 8.41 93.58 8.41L93.58 8.41L93.58 8.41Q93.65 8.41 93.71 8.41L93.71 8.41L93.71 8.41Q93.39 9.39 93.06 10.53L93.06 10.53L93.06 10.53Q93.00 10.79 93.65 10.67L93.65 10.67L93.65 10.67Q93.95 10.62 94.21 10.49L94.21 10.49L94.21 10.49Q94.48 10.37 94.51 10.27L94.51 10.27L94.51 10.27Q94.77 9.32 95.05 8.48L95.05 8.48L95.05 8.48Q95.34 8.50 95.54 8.47L95.54 8.47L95.54 8.47Q96.24 8.39 96.60 8.46L96.60 8.46L96.60 8.46Q96.49 10.55 96.49 12.02L96.49 12.02L96.49 12.02Q96.49 12.10 96.71 12.11L96.71 12.11L96.71 12.11Q96.93 12.12 97.22 12.06L97.22 12.06L97.22 12.06Q97.95 11.91 97.95 11.62L97.95 11.62L97.95 11.62Q97.95 9.90 98.16 6.45L98.16 6.45L98.16 6.45Q98.36 3.00 98.36 1.27L98.36 1.27L98.36 1.27Q98.36 1.18 98.08 1.18L98.08 1.18ZM109.70 5.31L109.70 5.31Q109.55 6.24 108.66 7.18L108.66 7.18L108.66 7.18Q108.47 7.38 108.23 7.58L108.23 7.58L108.23 7.58Q108.17 7.63 108.10 7.68L108.10 7.68L108.10 7.68Q107.88 7.59 107.63 7.58L107.63 7.58L107.63 7.58Q108.19 4.74 108.34 2.66L108.34 2.66L108.34 2.66Q108.60 2.80 108.84 2.99L108.84 2.99L108.84 2.99Q109.35 3.39 109.59 4.03L109.59 4.03L109.59 4.03Q109.81 4.65 109.70 5.31L109.70 5.31ZM106.73 2.40L106.73 2.40Q106.73 2.40 106.74 2.39L106.74 2.39L106.74 2.39Q106.74 2.40 106.73 2.40L106.73 2.40ZM111.67 11.42L111.67 11.42Q110.93 10.88 109.40 8.99L109.40 8.99L109.40 8.99Q108.73 8.17 108.62 8.05L108.62 8.05L108.62 8.05Q109.07 7.84 109.50 7.50L109.50 7.50L109.50 7.50Q110.71 6.56 111.06 5.41L111.06 5.41L111.06 5.41Q111.31 4.60 111.10 3.84L111.10 3.84L111.10 3.84Q110.89 3.07 110.27 2.53L110.27 2.53L110.27 2.53Q109.03 1.46 106.96 1.88L106.96 1.88L106.96 1.88Q106.83 1.91 106.63 1.96L106.63 1.96L106.63 1.96Q105.89 2.14 105.95 2.37L105.95 2.37L105.95 2.37Q106.01 2.58 106.72 2.40L106.72 2.40L106.72 2.40Q106.79 2.39 106.84 2.38L106.84 2.38L106.84 2.38Q106.88 2.37 106.91 2.37L106.91 2.37L106.91 2.37Q106.80 5.11 105.56 10.79L105.56 10.79L105.56 10.79Q105.51 11.04 106.14 10.92L106.14 10.92L106.14 10.92Q106.45 10.87 106.70 10.75L106.70 10.75L106.70 10.75Q106.98 10.62 107.00 10.53L107.00 10.53L107.00 10.53Q107.30 9.17 107.39 8.72L107.39 8.72L107.39 8.72Q107.40 8.72 107.40 8.72L107.40 8.72L107.40 8.72Q107.41 8.72 107.41 8.72L107.41 8.72L107.41 8.72Q107.52 8.85 108.20 9.70L108.20 9.70L108.20 9.70Q109.52 11.34 110.28 11.92L110.28 11.92L110.28 11.92Q110.51 12.09 111.23 11.83L111.23 11.83L111.23 11.83Q111.41 11.76 111.56 11.67L111.56 11.67L111.56 11.67Q111.80 11.52 111.67 11.42L111.67 11.42ZM122.90 3.48L122.90 3.48Q122.86 1.70 122.01 1.01L122.01 1.01L122.01 1.01Q121.55 0.64 120.65 0.68L120.65 0.68L120.65 0.68Q119.66 0.72 118.41 1.40L118.41 1.40L118.41 1.40Q118.22 1.50 118.25 1.60L118.25 1.60L118.25 1.60Q118.29 1.70 118.49 1.71L118.49 1.71L118.49 1.71Q118.99 1.72 119.52 1.44L119.52 1.44L119.52 1.44Q119.53 1.43 119.55 1.42L119.55 1.42L119.55 1.42Q119.59 1.39 119.68 1.35L119.68 1.35L119.68 1.35Q119.72 1.34 119.79 1.31L119.79 1.31L119.79 1.31Q119.82 1.29 119.93 1.26L119.93 1.26L119.94 1.26L119.94 1.26Q119.94 1.25 119.94 1.26L119.94 1.26L119.94 1.26Q119.95 1.25 119.97 1.25L119.97 1.25L119.97 1.25Q120.00 1.25 120.05 1.26L120.05 1.26L120.05 1.26Q120.05 1.26 120.07 1.26L120.07 1.26L120.07 1.26Q120.12 1.26 120.12 1.26L120.12 1.26L120.12 1.26Q120.20 1.28 120.31 1.31L120.31 1.31L120.31 1.31Q120.31 1.31 120.31 1.31L120.31 1.31L120.31 1.31Q120.31 1.31 120.32 1.31L120.32 1.31L120.32 1.31Q120.35 1.33 120.39 1.35L120.39 1.35L120.39 1.35Q120.45 1.37 120.53 1.43L120.53 1.43L120.53 1.43Q120.66 1.51 120.79 1.65L120.79 1.65L120.79 1.65Q120.99 1.85 121.15 2.23L121.15 2.23L121.15 2.23Q121.74 3.66 121.21 6.11L121.21 6.11L121.21 6.11Q120.86 7.70 120.15 8.97L120.15 8.97L120.15 8.97Q119.79 9.60 119.39 10.03L119.39 10.03L119.39 10.03Q119.21 10.22 119 10.39L119 10.39L119 10.39Q120.09 5.68 120.55 1.78L120.55 1.78L120.55 1.78Q120.56 1.71 120.34 1.70L120.34 1.70L120.34 1.70Q120.12 1.69 119.85 1.74L119.85 1.74L119.85 1.74Q119.12 1.87 119.09 2.17L119.09 2.17L119.09 2.17Q118.62 6.19 117.44 11.16L117.44 11.16L117.44 11.16Q117.38 11.42 118.02 11.30L118.02 11.30L118.02 11.30Q118.32 11.25 118.58 11.12L118.58 11.12L118.58 11.12Q118.77 11.03 118.84 10.97L118.84 10.97L118.84 10.97Q119.10 10.93 119.49 10.77L119.49 10.77L119.49 10.77Q121.05 10.12 122.04 7.78L122.04 7.78L122.04 7.78Q122.94 5.63 122.90 3.48L122.90 3.48ZM134.63 10.27L134.63 10.27Q134.63 10.27 134.62 10.28L134.62 10.28L134.62 10.28Q134.63 10.27 134.63 10.27L134.63 10.27L134.63 10.27L134.63 10.27ZM138.46 0.67L138.46 0.67Q138.39 0.42 137.66 0.62L137.66 0.62L137.66 0.62Q136.93 0.82 137.00 1.06L137.00 1.06L137.00 1.06Q137.20 1.79 137.23 2.47L137.23 2.47L137.23 2.47Q137.25 2.95 137.12 4.01L137.12 4.01L137.12 4.01Q136.90 5.59 136.55 6.73L136.55 6.73L136.55 6.73Q136.26 7.65 135.65 8.81L135.65 8.81L135.65 8.81Q135.67 8.78 135.61 8.90L135.61 8.90L135.61 8.90Q135.53 7.21 135.53 1.98L135.53 1.98L135.53 1.98Q135.53 1.89 135.31 1.88L135.31 1.88L135.31 1.88Q135.11 1.87 134.82 1.94L134.82 1.94L134.82 1.94Q134.11 2.10 134.07 2.37L134.07 2.37L134.07 2.37Q133.70 4.98 133.10 6.81L133.10 6.81L133.10 6.81Q132.60 8.30 131.91 9.37L131.91 9.37L131.91 9.37Q131.65 8.18 131.76 5.77L131.76 5.77L131.76 5.77Q131.77 5.55 131.82 3.78L131.82 3.78L131.82 3.78Q131.84 2.54 132.24 1.94L132.24 1.94L132.24 1.94Q132.33 1.80 132.02 1.79L132.02 1.79L132.02 1.79Q131.81 1.78 131.65 1.81L131.65 1.81L131.65 1.81Q130.98 1.93 130.80 2.21L130.80 2.21L130.80 2.21Q130.42 2.78 130.36 3.94L130.36 3.94L130.36 3.94Q130.34 4.30 130.33 4.96L130.33 4.96L130.33 4.96Q130.32 5.65 130.31 5.97L130.31 5.97L130.31 5.97Q130.15 9.35 130.79 10.80L130.79 10.80L130.79 10.80Q130.86 10.96 131.38 10.87L131.38 10.87L131.38 10.87Q131.95 10.77 132.18 10.55L132.18 10.55L132.18 10.55Q133.33 9.43 134.09 7.75L134.09 7.75L134.09 7.75Q134.13 9.30 134.22 10.60L134.22 10.60L134.22 10.60Q134.23 10.77 134.68 10.69L134.68 10.69L134.68 10.69Q134.97 10.64 135.20 10.57L135.20 10.57L135.20 10.57Q136.13 10.25 136.87 8.96L136.87 8.96L136.87 8.96Q137.50 7.89 137.88 6.79L137.88 6.79L137.88 6.79Q138.29 5.63 138.54 3.89L138.54 3.89L138.54 3.89Q138.70 2.77 138.69 2.25L138.69 2.25L138.69 2.25Q138.69 1.53 138.46 0.67L138.46 0.67ZM147.65 7.89L147.65 7.89Q147.55 7.90 146.64 7.84L146.64 7.84L146.64 7.84Q147.05 6.63 147.51 5.57L147.51 5.57L147.51 5.57Q147.68 5.18 148.22 3.95L148.22 3.95L148.22 3.95Q148.20 4.61 148.02 7.85L148.02 7.85L148.02 7.85Q147.85 7.87 147.65 7.89L147.65 7.89ZM149.46 1.18L149.46 1.18Q149.28 1.09 148.89 1.16L148.89 1.16L148.89 1.16Q148.25 1.27 148.04 1.55L148.04 1.55L148.04 1.55Q147.84 1.80 147.06 3.58L147.06 3.58L147.06 3.58Q146.92 3.90 146.56 4.70L146.56 4.70L146.56 4.70Q146.25 5.42 146.07 5.83L146.07 5.83L146.07 5.83Q145.65 6.79 145.28 7.86L145.28 7.86L145.28 7.86Q144.35 7.97 143.71 8.37L143.71 8.37L143.71 8.37Q143.53 8.48 143.55 8.58L143.55 8.58L143.55 8.58Q143.58 8.67 143.79 8.68L143.79 8.68L143.79 8.68Q144.31 8.70 144.78 8.43L144.78 8.43L144.78 8.43Q144.92 8.41 144.97 8.41L144.97 8.41L144.97 8.41Q145.03 8.41 145.09 8.41L145.09 8.41L145.09 8.41Q144.77 9.39 144.45 10.53L144.45 10.53L144.45 10.53Q144.38 10.79 145.04 10.67L145.04 10.67L145.04 10.67Q145.34 10.62 145.59 10.49L145.59 10.49L145.59 10.49Q145.87 10.37 145.89 10.27L145.89 10.27L145.89 10.27Q146.16 9.32 146.43 8.48L146.43 8.48L146.43 8.48Q146.73 8.50 146.92 8.47L146.92 8.47L146.92 8.47Q147.63 8.39 147.98 8.46L147.98 8.46L147.98 8.46Q147.88 10.55 147.88 12.02L147.88 12.02L147.88 12.02Q147.88 12.10 148.10 12.11L148.10 12.11L148.10 12.11Q148.32 12.12 148.61 12.06L148.61 12.06L148.61 12.06Q149.34 11.91 149.34 11.62L149.34 11.62L149.34 11.62Q149.34 9.90 149.54 6.45L149.54 6.45L149.54 6.45Q149.74 3.00 149.74 1.27L149.74 1.27L149.74 1.27Q149.74 1.18 149.46 1.18L149.46 1.18ZM161.09 5.31L161.09 5.31Q160.94 6.24 160.04 7.18L160.04 7.18L160.04 7.18Q159.85 7.38 159.61 7.58L159.61 7.58L159.61 7.58Q159.55 7.63 159.49 7.68L159.49 7.68L159.49 7.68Q159.27 7.59 159.02 7.58L159.02 7.58L159.02 7.58Q159.58 4.74 159.72 2.66L159.72 2.66L159.72 2.66Q159.99 2.80 160.23 2.99L160.23 2.99L160.23 2.99Q160.74 3.39 160.97 4.03L160.97 4.03L160.97 4.03Q161.20 4.65 161.09 5.31L161.09 5.31ZM158.12 2.40L158.12 2.40Q158.12 2.40 158.13 2.39L158.13 2.39L158.13 2.39Q158.12 2.40 158.12 2.40L158.12 2.40ZM163.05 11.42L163.05 11.42Q162.32 10.88 160.79 8.99L160.79 8.99L160.79 8.99Q160.12 8.17 160.00 8.05L160.00 8.05L160.00 8.05Q160.46 7.84 160.89 7.50L160.89 7.50L160.89 7.50Q162.09 6.56 162.45 5.41L162.45 5.41L162.45 5.41Q162.70 4.60 162.49 3.84L162.49 3.84L162.49 3.84Q162.28 3.07 161.66 2.53L161.66 2.53L161.66 2.53Q160.41 1.46 158.34 1.88L158.34 1.88L158.34 1.88Q158.21 1.91 158.01 1.96L158.01 1.96L158.01 1.96Q157.27 2.14 157.34 2.37L157.34 2.37L157.34 2.37Q157.40 2.58 158.11 2.40L158.11 2.40L158.11 2.40Q158.18 2.39 158.22 2.38L158.22 2.38L158.22 2.38Q158.27 2.37 158.30 2.37L158.30 2.37L158.30 2.37Q158.18 5.11 156.95 10.79L156.95 10.79L156.95 10.79Q156.89 11.04 157.53 10.92L157.53 10.92L157.53 10.92Q157.83 10.87 158.09 10.75L158.09 10.75L158.09 10.75Q158.37 10.62 158.39 10.53L158.39 10.53L158.39 10.53Q158.68 9.17 158.78 8.72L158.78 8.72L158.78 8.72Q158.79 8.72 158.79 8.72L158.79 8.72L158.79 8.72Q158.79 8.72 158.79 8.72L158.79 8.72L158.79 8.72Q158.90 8.85 159.58 9.70L159.58 9.70L159.58 9.70Q160.90 11.34 161.67 11.92L161.67 11.92L161.67 11.92Q161.90 12.09 162.61 11.83L162.61 11.83L162.61 11.83Q162.80 11.76 162.94 11.67L162.94 11.67L162.94 11.67Q163.19 11.52 163.05 11.42L163.05 11.42ZM174.15 1.42L174.15 1.42Q173.43 1.19 172.25 1.57L172.25 1.57L172.25 1.57Q170.74 2.06 170.18 3.77L170.18 3.77L170.18 3.77Q169.83 4.83 170.01 6.11L170.01 6.11L170.01 6.11Q170.10 6.76 170.37 7.16L170.37 7.16L170.37 7.16Q169.95 7.38 169.65 7.70L169.65 7.70L169.65 7.70Q168.66 8.80 168.77 10.01L168.77 10.01L168.77 10.01Q168.83 10.70 169.31 11.11L169.31 11.11L169.31 11.11Q169.71 11.44 170.54 11.42L170.54 11.42L170.54 11.42Q171.37 11.39 172.07 10.95L172.07 10.95L172.07 10.95Q172.83 10.49 173.13 9.76L173.13 9.76L173.13 9.76Q173.19 9.61 172.91 9.60L172.91 9.60L172.91 9.60Q172.74 9.59 172.55 9.63L172.55 9.63L172.55 9.63Q171.79 9.76 171.69 10.02L171.69 10.02L171.69 10.02Q171.49 10.51 171.14 10.80L171.14 10.80L171.14 10.80Q171.13 10.81 171.12 10.82L171.12 10.82L171.12 10.82Q171.07 10.81 171.06 10.81L171.06 10.81L171.06 10.81Q170.99 10.79 170.91 10.75L170.91 10.75L170.91 10.75Q170.75 10.68 170.59 10.52L170.59 10.52L170.59 10.52Q170.30 10.23 170.23 9.63L170.23 9.63L170.23 9.63Q170.13 8.83 170.76 7.86L170.76 7.86L170.76 7.86Q170.84 7.74 170.95 7.62L170.95 7.62L170.95 7.62Q171.16 7.70 171.43 7.72L171.43 7.72L171.43 7.72Q171.83 7.74 172.33 7.51L172.33 7.51L172.33 7.51Q172.74 7.32 172.59 7.18L172.59 7.18L172.59 7.18Q172.31 6.90 171.88 6.84L171.88 6.84L171.88 6.84Q171.84 6.79 171.81 6.75L171.81 6.75L171.81 6.75Q171.60 6.45 171.49 5.89L171.49 5.89L171.49 5.89Q171.30 4.89 171.49 4.00L171.49 4.00L171.49 4.00Q171.75 2.70 172.52 2.04L172.52 2.04L172.52 2.04Q172.57 2.00 172.67 1.93L172.67 1.93L172.67 1.93Q172.68 1.93 172.68 1.93L172.68 1.93L172.68 1.93Q172.81 1.94 172.79 1.93L172.79 1.93L172.79 1.93Q173.37 2.02 173.25 2.62L173.25 2.62L173.25 2.62Q173.20 2.86 173.83 2.75L173.83 2.75L173.83 2.75Q174.14 2.69 174.39 2.58L174.39 2.58L174.39 2.58Q174.67 2.45 174.69 2.36L174.69 2.36L174.69 2.36Q174.83 1.63 174.15 1.42L174.15 1.42Z"></path></g></svg>